<?xml version="1.0" encoding="UTF-8" standalone="no"?>
<svg
   width="210mm"
   height="297mm"
   viewBox="0 0 210 297"
   version="1.1"
   id="svg8"
   inkscape:version="1.1 (c68e22c387, 2021-05-23)"
   sodipodi:docname="yak spark logo.svg"
   xmlns:inkscape="http://www.inkscape.org/namespaces/inkscape"
   xmlns:sodipodi="http://sodipodi.sourceforge.net/DTD/sodipodi-0.dtd"
   xmlns="http://www.w3.org/2000/svg"
   xmlns:svg="http://www.w3.org/2000/svg"
   xmlns:rdf="http://www.w3.org/1999/02/22-rdf-syntax-ns#"
   xmlns:cc="http://creativecommons.org/ns#"
   xmlns:dc="http://purl.org/dc/elements/1.1/">
  <defs
     id="defs2" />
  <sodipodi:namedview
     id="base"
     pagecolor="#ffffff"
     bordercolor="#666666"
     borderopacity="1.0"
     inkscape:pageopacity="0.0"
     inkscape:pageshadow="2"
     inkscape:zoom="6.1484127"
     inkscape:cx="327.80818"
     inkscape:cy="476.95237"
     inkscape:document-units="mm"
     inkscape:current-layer="layer1"
     inkscape:document-rotation="0"
     showgrid="false"
     inkscape:window-width="2560"
     inkscape:window-height="1377"
     inkscape:window-x="-8"
     inkscape:window-y="-8"
     inkscape:window-maximized="1"
     inkscape:pagecheckerboard="0" />
  <metadata
     id="metadata5">
    <rdf:RDF>
      <cc:Work
         rdf:about="">
        <dc:format>image/svg+xml</dc:format>
        <dc:type
           rdf:resource="http://purl.org/dc/dcmitype/StillImage" />
      </cc:Work>
    </rdf:RDF>
  </metadata>
  <g
     inkscape:label="Layer 1"
     inkscape:groupmode="layer"
     id="layer1">
    <g
       id="g158"
       transform="matrix(0.9,0,0,0.9,8.1042084,12.326669)">
      <g
         id="g1084"
         transform="matrix(0.97322285,0,0,1,2.1431023,0)">
        <path
           id="path843"
           style="font-style:normal;font-variant:normal;font-weight:500;font-stretch:normal;font-size:10.5833px;line-height:1.25;font-family:Frankie;-inkscape-font-specification:'Frankie, Medium';font-variant-ligatures:normal;font-variant-caps:normal;font-variant-numeric:normal;font-variant-east-asian:normal;stroke-width:0.374994"
           d="m 85.530694,110.15141 c -1.404299,0.23711 -3.034208,0.21953 -4.124543,1.26604 0.225882,0.70161 1.641147,0.16804 2.273667,0.62895 1.184573,0.12575 2.212745,-1.23919 3.392367,-0.60158 0.862881,-0.052 0.990985,0.92223 0.07365,0.86941 -1.452863,-0.17153 -2.889986,0.31517 -4.344953,0.28778 -0.859703,0.14377 -1.965897,0.60001 -2.034083,1.59953 0.151688,1.24141 1.702957,1.35792 2.703767,1.45114 1.334035,0.28631 2.667921,0.0336 3.903218,-0.50772 0.783387,-0.13872 1.345985,0.97326 2.211928,0.4591 0.854764,0.0959 2.641783,0.40156 2.019721,-1.06064 -0.254177,-1.06746 0.411361,-2.2812 -0.18963,-3.24869 -0.882259,-0.93684 -2.29484,-0.99118 -3.499175,-1.08075 -0.795307,-0.0113 -1.59434,0.0366 -2.385932,-0.0626 z m 1.381829,2.88923 c 1.483193,-0.0424 0.521048,1.61453 -0.425114,1.66243 -0.85762,0.37408 -2.441717,-0.8162 -1.008935,-1.33405 0.448149,-0.28771 0.955518,-0.206 1.434049,-0.32838 z" />
        <path
           id="path841"
           style="font-style:normal;font-variant:normal;font-weight:500;font-stretch:normal;font-size:10.5833px;line-height:1.25;font-family:Frankie;-inkscape-font-specification:'Frankie, Medium';font-variant-ligatures:normal;font-variant-caps:normal;font-variant-numeric:normal;font-variant-east-asian:normal;stroke-width:0.500694"
           d="m 81.625767,110.26349 c -0.6799,-0.6772 -1.847413,-0.15826 -2.739762,-0.39449 -0.934663,-0.13176 -1.369921,0.80564 -1.815391,1.44117 -0.464577,0.71203 -0.87565,1.45705 -1.27649,2.20627 -1.432874,0.3298 -1.541766,-1.75772 -2.406718,-2.48498 -0.609177,-1.24475 -1.992523,-0.96864 -3.099644,-0.87725 -0.647026,0.26427 -1.617433,-0.16729 -2.020572,0.0391 -0.06909,1.06867 1.1796,1.51916 1.582017,2.39132 0.560592,1.18286 1.532533,2.14298 2.154934,3.27557 0.853905,0.80111 1.71433,2.00931 1.199497,3.22555 -0.164982,0.82391 -0.189735,1.75233 -0.141883,2.61851 0.32724,1.12714 1.707787,0.38795 2.571181,0.69124 1.210937,0.18993 1.523263,-0.95224 1.270655,-1.89499 0.03893,-1.20718 0.165385,-2.40911 0.23501,-3.61451 0.905294,-0.9887 1.366817,-2.28949 2.292664,-3.25852 0.710211,-1.00147 1.186516,-2.14923 2.009094,-3.06835 l 0.09301,-0.14508 z" />
        <path
           id="path845"
           style="font-style:normal;font-variant:normal;font-weight:500;font-stretch:normal;font-size:10.5833px;line-height:1.25;font-family:Frankie;-inkscape-font-specification:'Frankie, Medium';font-variant-ligatures:normal;font-variant-caps:normal;font-variant-numeric:normal;font-variant-east-asian:normal;stroke-width:0.321031"
           d="m 81.040586,119.32695 c 0.131169,0.80016 -0.297108,2.56468 0.808568,2.58505 1.096619,-0.1319 2.234468,0.22719 3.300183,-0.16732 -0.0056,-1.07359 1.038089,-1.8073 2.051098,-1.45865 1.057436,0.56495 1.849471,1.76061 3.187693,1.6901 1.027261,0.0149 2.04744,-0.20523 3.074193,-0.0718 1.190765,-0.12591 -0.542891,-0.82509 -0.86998,-1.06073 -0.789769,-0.7563 -1.933686,-1.10733 -2.590797,-1.97443 0.112758,-0.9559 1.701505,-0.94999 2.405353,-1.53744 0.702866,-0.32629 0.70119,-0.59578 -0.08451,-0.49771 -1.441244,-0.10022 -3.004951,-0.17695 -4.261544,0.66949 -0.942827,0.5032 -1.830739,1.37541 -2.960116,1.32026 -0.902618,-0.34002 0.833531,-2.11075 -0.552523,-2.00362 -1.022679,0.56868 -2.653667,-0.49071 -3.353792,0.39898 -0.130629,0.69699 -0.180236,1.39978 -0.153826,2.10785 z" />
      </g>
      <g
         id="g1091"
         transform="matrix(1.0042608,0,0,1,-0.36314784,0)">
        <path
           id="path855"
           style="font-style:normal;font-variant:normal;font-weight:normal;font-stretch:normal;font-size:10.5833px;line-height:1.25;font-family:Frankie;-inkscape-font-specification:'Frankie, Normal';font-variant-ligatures:normal;font-variant-caps:normal;font-variant-numeric:normal;font-variant-east-asian:normal;stroke-width:0.232126"
           d="m 80.322228,122.69793 c -0.772324,1.87285 -0.928138,3.9171 -1.475951,5.85282 -0.230765,0.58671 -0.502493,1.72202 0.569448,1.33344 0.984137,-0.24043 0.438358,-1.93341 1.772138,-1.55107 0.951185,0.12566 0.37788,1.82981 1.617467,1.62798 1.320989,0.0899 0.571586,-1.3161 0.349271,-2.00585 -0.09195,-0.83917 -0.380225,-1.64161 -0.54991,-2.47635 -0.184285,-0.84064 -0.373919,-1.69207 -0.594896,-2.51371 -0.434292,-0.46639 -1.182413,0.0715 -1.687567,-0.26726 z m 0.625801,1.88568 c 0.213477,0.69044 0.5089,1.78994 -0.01073,2.31398 -0.686945,-0.53912 -0.155059,-1.5045 -0.02943,-2.20841 z" />
        <path
           id="path853"
           style="font-style:normal;font-variant:normal;font-weight:normal;font-stretch:normal;font-size:10.5833px;line-height:1.25;font-family:Frankie;-inkscape-font-specification:'Frankie, Normal';font-variant-ligatures:normal;font-variant-caps:normal;font-variant-numeric:normal;font-variant-east-asian:normal;stroke-width:0.236433"
           d="m 74.485375,123.03642 c -0.373048,1.79176 0.08649,3.60958 -0.03678,5.41666 0.04103,0.74625 -0.213616,1.91434 0.87296,1.55474 1.171117,-0.002 0.133556,-1.48811 0.653085,-2.09546 0.561056,0.35819 1.513798,0.70836 1.992139,-0.16661 0.530416,-0.77043 0.497255,-1.75866 0.498543,-2.65082 -0.05694,-0.93408 -0.743312,-2.60946 -1.92169,-1.88882 -0.522001,0.37261 -0.763321,0.47755 -0.930381,-0.13834 -0.371687,-0.0547 -0.788457,0.26403 -1.127881,-0.0313 z m 1.960605,1.14308 c 0.716736,0.75532 0.634325,1.96269 0.230634,2.84966 -0.793436,0.48064 -1.011126,-0.9547 -0.724816,-1.43839 -0.05411,-0.48977 -0.114192,-1.24422 0.494182,-1.41127 z" />
        <path
           id="path851"
           style="font-style:normal;font-variant:normal;font-weight:normal;font-stretch:normal;font-size:10.5833px;line-height:1.25;font-family:Frankie;-inkscape-font-specification:'Frankie, Normal';font-variant-ligatures:normal;font-variant-caps:normal;font-variant-numeric:normal;font-variant-east-asian:normal;stroke-width:0.242078"
           d="m 68.639193,127.97885 c 0.211456,1.29188 1.618255,1.99026 2.832764,1.80832 1.229903,-0.12622 2.539271,-1.2642 2.1991,-2.59576 -0.183594,-1.03615 -1.183042,-1.82525 -2.23457,-1.73834 -0.806455,-0.0574 -1.096655,-1.44428 -0.03713,-1.2102 0.336053,0.8169 2.254648,0.66081 1.925017,-0.2604 -0.679527,-1.14069 -2.403715,-1.65092 -3.494479,-0.78563 -0.96177,0.50369 -1.143363,1.68222 -0.859086,2.62444 0.387563,1.00039 1.454149,1.30109 2.404212,1.47283 1.376012,0.43704 -0.306524,1.76261 -0.934462,0.76038 -0.384757,-0.86536 -1.10224,-0.38365 -1.801364,-0.0756 z" />
        <path
           id="path857"
           style="font-style:normal;font-variant:normal;font-weight:normal;font-stretch:normal;font-size:10.5833px;line-height:1.25;font-family:Frankie;-inkscape-font-specification:'Frankie, Normal';font-variant-ligatures:normal;font-variant-caps:normal;font-variant-numeric:normal;font-variant-east-asian:normal;stroke-width:0.221774"
           d="m 84.254679,123.63977 c -0.174687,-1.35983 1.652027,-0.4134 2.392712,-0.78477 1.004734,-0.0763 2.020452,0.58078 2.116244,1.63051 0.147194,0.92661 -0.271903,1.87283 -0.916939,2.52435 0.277205,0.87437 0.991793,2.20857 0.612832,2.9079 -1.22463,0.36718 -1.873045,-0.89092 -1.754892,-1.91962 -0.04972,-0.73062 -1.164855,-1.20088 -0.926859,-0.12498 0.102166,0.84752 0.312964,2.59539 -1.080016,2.1215 -0.732567,-0.56101 -0.341152,-1.62489 -0.351048,-2.41397 0.07752,-1.31538 -0.123326,-2.62546 -0.09203,-3.94092 z m 1.487157,2.11659 c 1.094083,0.63946 2.108693,-1.31054 0.717611,-1.51296 -0.991341,-0.20955 -0.422934,1.03374 -0.717611,1.51296 z" />
        <path
           id="path859"
           style="font-style:normal;font-variant:normal;font-weight:normal;font-stretch:normal;font-size:10.5833px;line-height:1.25;font-family:Frankie;-inkscape-font-specification:'Frankie, Normal';font-variant-ligatures:normal;font-variant-caps:normal;font-variant-numeric:normal;font-variant-east-asian:normal;stroke-width:0.230568"
           d="m 89.182978,127.32269 c 0.220018,0.80659 -0.296931,1.86686 0.374599,2.50177 0.735288,0.35681 1.463899,-0.0426 1.266634,-0.91684 -0.223271,-0.66441 0.688784,-1.4497 0.75351,-0.46634 0.201019,0.755 0.748688,1.86145 1.701341,1.46818 0.7387,-0.84112 -0.79803,-2.06253 -0.772009,-3.11478 -0.566751,-0.82418 1.028064,-1.50273 0.713614,-2.19495 -1.096186,-0.35274 -1.507037,0.76055 -1.948535,1.52362 -0.746305,0.51547 -0.377069,-1.01261 -0.615445,-1.46295 -0.209569,-0.57102 0.143213,-1.43468 0.0027,-1.78661 -0.757138,-0.33746 -1.783877,-0.0187 -1.384115,0.97555 -0.02618,1.1579 -0.06287,2.31554 -0.09231,3.47335 z" />
      </g>
      <g
         id="g1104"
         transform="matrix(0.9625043,0,0,1.0003076,2.2843386,-0.57041073)">
        <path
           id="rect883"
           style="opacity:0.995;fill:#000000;fill-opacity:1;stroke:#000000;stroke-width:0.370856;stroke-linecap:round"
           d="m 259.24219,493.30859 v 23.08008 h 94.11719 v -23.08008 z m 25.71093,1.64258 c 1.44343,0.008 1.56431,3.99883 1.44336,5.70117 0.12338,4.75706 1.99311,-1.0763 3.72852,-1.63672 2.74658,0.64854 -2.49719,5.57768 0.53906,7.70118 3.19505,1.8269 -0.85809,6.71055 -2.03711,2.40234 0.4722,-2.67809 -2.78313,-2.82157 -2.15429,-0.0625 -1.0754,4.69479 -4.75523,-1.56192 -3.09375,-3.91797 0.0426,-3.10523 0.20536,-6.20831 0.19336,-9.31445 0.55749,-0.61921 1.01292,-0.87517 1.38085,-0.87305 z m 45.05274,3.50977 c 0.80922,-0.0143 1.57273,0.24259 2.0625,0.88086 3.20301,2.91442 0.69437,7.56473 1.66992,11.25 -0.58461,0.14896 -1.18868,0.25819 -1.79297,0.21093 -1.21097,-2.15321 -3.73513,1.56908 -5.72851,-0.83007 -2.33894,-3.35661 1.17787,-7.10904 4.59375,-6.80469 0.353,-3.33438 -2.30445,-0.22025 -3.72461,-0.66406 -1.90248,-1.88726 0.68267,-4.00331 2.91992,-4.04297 z m 8.14453,0.0937 c 2.83436,-0.0824 6.22495,5.30589 1.72656,5.1914 -0.67138,-3.97241 -3.41086,0.63015 -2.08398,2.43164 0.0386,4.40564 2.81782,-1.96432 4.59961,0.42383 -0.0133,2.20592 -1.81364,4.8666 -4.16016,4.53125 -4.38185,-1.46736 -4.85046,-8.05429 -2.00195,-11.26758 0.51045,-0.91372 1.19744,-1.28954 1.91992,-1.31054 z m -59.68945,0.16015 c 1.19519,0.006 2.40881,0.45283 3.07226,1.40235 1.85874,3.17737 0.21445,7.031 0.90039,10.47461 -1.08131,0.78196 -2.19415,0.17468 -2.97656,-0.6875 -1.35407,1.08778 -4.69954,1.74348 -4.99609,-1.54492 -1.19722,-3.57639 2.28575,-4.93112 4.74609,-5.08008 0.54409,-3.73408 -2.32685,-0.19162 -3.74219,-0.7461 -1.20754,-2.43811 0.86553,-3.82877 2.9961,-3.81836 z m -11.78711,0.0645 c 1.1769,3.16179 4.64916,-2.11678 5.90234,1.75 1.03372,2.97967 0.61912,6.75703 -0.0937,9.53515 -4.07922,1.82048 -1.7679,-5.3726 -2.55273,-7.54687 -3.91431,-0.75054 0.31368,6.15755 -2.15235,7.67773 -3.67343,1.21723 -1.93953,-5.46159 -2.29687,-7.71484 -3.48769,-0.66881 -0.28925,6.02665 -2.08203,7.73828 -3.98882,1.4519 -1.63597,-5.61399 -2.57032,-7.81836 0.30394,-0.88612 -0.11434,-1.81944 0.0391,-2.72461 1.30201,-1.36668 3.94752,0.50181 5.80664,-0.89648 z m 81.20312,0.0137 c 3.21641,0.0107 5.79113,7.05643 1.60547,7.13672 -2.06526,-1.84033 -4.54263,0.64759 -2.04492,2.3125 1.52439,-2.83291 5.81475,-1.36707 2.94141,1.68164 -3.52636,3.32512 -8.11538,-1.40235 -7.29297,-5.48047 -0.0741,-2.58081 1.73783,-5.4935 4.39648,-5.61524 0.13246,-0.0238 0.26378,-0.0356 0.39453,-0.0351 z m -36.04883,0.002 c 0.29679,-0.001 0.60765,0.0353 0.9336,0.11328 3.21427,0.43573 1.50584,5.46025 -0.96289,2.42969 -3.74574,2.74932 5.06938,0.95696 3.79492,4.89258 0.48896,3.56572 -4.18495,6.55885 -6.69727,3.67773 -2.29013,-3.20341 1.37008,-2.228 3.1211,-1.33398 2.55744,-1.30944 -1.16475,-1.33232 -2.0586,-2.41016 -3.00999,-2.18613 -1.63288,-7.35654 1.86914,-7.36914 z m -15.4707,0.16797 c 2.24861,-0.0516 4.73487,1.98693 4.76758,4.57422 1.00726,3.78148 -8.24196,0.7453 -4.48438,4.49219 0.8977,-1.75594 6.35856,-1.61059 3.06446,1.77343 -3.19318,3.33287 -8.65791,-1.29415 -7.29297,-5.35937 0.41243,-1.12684 0.19756,-2.48773 0.99414,-3.45898 0.66022,-1.3947 1.77333,-1.99448 2.95117,-2.02149 z m 8.83594,0 c 0.66696,-3.8e-4 1.29498,0.13035 1.81055,0.60352 0.43908,2.19571 0.62371,3.08406 -1.48438,3.79101 -0.99768,2.02464 0.96556,9.52593 -3.09961,6.26758 -1.39086,-3.36436 0.51684,-7.00574 -0.15039,-10.48242 0.89411,0.10126 1.94904,-0.17914 2.92383,-0.17969 z m 14.91016,0.17773 c 2.89956,-0.038 5.1378,2.95555 4.53906,6.27735 -0.50619,1.91019 -0.34026,4.97194 -2.82422,5.35156 -2.71575,-2.48399 -1.9571,1.97834 -2.41797,3.21875 -3.37741,2.16694 -2.50783,-4.30805 -2.3418,-6.22656 0.0873,-2.59299 -2.02304,-7.49724 1.37891,-8.27149 0.56854,-0.23209 1.12906,-0.34257 1.66602,-0.34961 z m 27.38476,2.1504 c -0.3606,0.009 -0.76057,0.39742 -1.11328,1.45898 3.11806,2.90038 2.3443,-1.48919 1.11328,-1.45898 z m -50.5957,0.28515 c -0.1998,0.001 -0.44779,0.062 -0.75,0.19922 l -0.33985,0.69141 -0.4082,0.65234 c 1.55344,2.32039 3.125,-1.55412 1.49805,-1.54297 z m 23.54101,0.98242 c -1.78707,0.011 -0.29342,8.81758 1.06055,3.74024 0.43001,-1.00294 0.20842,-2.13229 -0.084,-3.13867 -0.3992,-0.42355 -0.72127,-0.60313 -0.97657,-0.60157 z m -42.00976,2.66407 c -1.31869,-0.001 -0.73384,5.93885 1.00586,1.98242 0.0226,-0.3569 0.0439,-0.71537 0.0664,-1.07227 -0.44436,-0.65352 -0.79857,-0.90992 -1.07226,-0.91015 z m 51.31445,0.13867 c -1.81498,0.085 -0.28131,5.90032 0.99414,1.84375 -0.0453,-0.58813 0.36585,-1.37572 -0.39062,-1.70313 -0.23283,-0.10625 -0.43288,-0.14861 -0.60352,-0.14062 z"
           transform="matrix(0.27489055,0,0,0.26450197,-2.3733282,0.57023533)" />
      </g>
    </g>
  </g>
</svg>
