<?xml version="1.0" encoding="UTF-8" standalone="no"?>
<svg
   width="100.0mm"
   height="100.0mm"
   viewBox="0 0 100.0 100.0"
   version="1.1"
   id="svg8"
   inkscape:version="1.1 (c68e22c387, 2021-05-23)"
   sodipodi:docname="yakbak_outline.svg"
   inkscape:export-filename="C:\Users\drew\Documents\Laser\yakbak outiline.png"
   inkscape:export-xdpi="288"
   inkscape:export-ydpi="288"
   xmlns:inkscape="http://www.inkscape.org/namespaces/inkscape"
   xmlns:sodipodi="http://sodipodi.sourceforge.net/DTD/sodipodi-0.dtd"
   xmlns="http://www.w3.org/2000/svg"
   xmlns:svg="http://www.w3.org/2000/svg"
   xmlns:rdf="http://www.w3.org/1999/02/22-rdf-syntax-ns#"
   xmlns:cc="http://creativecommons.org/ns#"
   xmlns:dc="http://purl.org/dc/elements/1.1/">
  <defs
     id="defs2" />
  <sodipodi:namedview
     id="base"
     pagecolor="#ffffff"
     bordercolor="#666666"
     borderopacity="1.0"
     inkscape:pageopacity="0.0"
     inkscape:pageshadow="2"
     inkscape:zoom="1.1924822"
     inkscape:cx="50.73451"
     inkscape:cy="319.92092"
     inkscape:document-units="mm"
     inkscape:current-layer="g23"
     inkscape:document-rotation="0"
     showgrid="false"
     inkscape:window-width="2560"
     inkscape:window-height="1377"
     inkscape:window-x="2552"
     inkscape:window-y="-8"
     inkscape:window-maximized="1"
     inkscape:pagecheckerboard="0" />
  <metadata
     id="metadata5">
    <rdf:RDF>
      <cc:Work
         rdf:about="">
        <dc:format>image/svg+xml</dc:format>
        <dc:type
           rdf:resource="http://purl.org/dc/dcmitype/StillImage" />
      </cc:Work>
    </rdf:RDF>
  </metadata>
  <g
     inkscape:label="[fixed] BG"
     inkscape:groupmode="layer"
     sodipodi:insensitive="true"
     id="g21">
    <rect
       x="0"
       y="0"
       width="100.0"
       height="100.0"
       style="fill:#FFFFFF;fill-opacity:1;stroke:none"
       id="rect19" />
  </g>
  <g
     inkscape:label="Edge.Cuts"
     inkscape:groupmode="layer"
     id="g23">
    <path
       style="fill:none;stroke:#000000;stroke-width:0.0384647;stroke-miterlimit:4;stroke-dasharray:none;stroke-opacity:1"
       d="m 30.568484,81.001559 c -0.15492,-0.0881 -0.30551,-0.28138 -0.33925,-0.4356 -0.16972,-13.29935 -0.11195,-27.00761 -0.14388,-38.65516 l -0.002,-1.43498 -1.00391,-0.77317 c -1.1016,-0.84839 -1.13328,-0.90469 -1.13328,-2.01431 0,-0.70541 -0.15326,-0.84012 -0.96682,-0.84984 l -0.50886,-0.006 -1.10044,-2.18807 c 0,0 -0.44068,-1.31388 -0.6194,-2.11049 -0.33278,-1.48336 -0.36886,-4.63691 -0.36886,-4.63691 0.11057,-4.49314 0.11598,-4.56997 0.37256,-5.2921 0.46243,-1.30147 1.73431,-3.32792 2.08873,-3.32792 0.098,0 0.34682,0.11449 0.55303,0.25442 0.6108,0.4145 1.05891,0.29933 1.05891,-0.27217 0,-0.20643 -0.0768,-0.32204 -0.28549,-0.42998 -0.15703,-0.0812 -0.34164,-0.27083 -0.41024,-0.42141 -0.11127,-0.2442 -0.0946,-0.31331 0.15467,-0.64008 0.15368,-0.20148 0.71797,-0.80302 1.25397,-1.33676 1.13851,-1.13368 2.12243,-1.738073 4.01945,-2.468983 1.96669,-0.75777 2.25201,-0.79131 6.73104,-0.79131 4.71794,0 4.6334,-0.0162 4.59232,0.88095 -0.0254,0.55447 -0.0124,0.5901 0.25001,0.68471 0.33973,0.1225 0.66185,-0.11944 0.70974,-0.53308 0.0274,-0.2369 -0.0733,-0.44369 0.2978,-0.47077 0.37591,-0.0274 3.33212,0.21414 4.22602,0.82217 1.3404,0.911743 2.38098,1.787153 3.38431,2.847093 1.02625,1.08417 1.36833,1.58566 2.52871,3.70708 0.83486,1.52628 0.94192,1.7858 1.1755,2.84958 0.14133,0.6437 0.28483,1.35356 0.31888,1.57746 0.0539,0.35471 0.007,46.93991 0.0807,48.86751 0.0249,0.64996 0.002,0.75805 -0.21467,0.9881 -0.15614,0.16621 -0.39195,0.27681 -0.66136,0.31021 l -9.35956,0.22725 c -0.16266,0.0473 -0.27351,0.51837 -0.22232,0.97051 0.0136,0.60912 -0.0126,2.66067 -0.0444,3.52934 -0.0197,0.53905 -0.54759,0.61859 -0.54759,0.61859 l -14.61899,0.0606 c -0.75978,0.0409 -1.02648,0.0181 -1.2454,-0.10637 z"
       id="path897"
       sodipodi:nodetypes="scccsssccsssssssssssssscsscsscsccccsscss" />
  </g>
  <g
     inkscape:label="B.Cu"
     inkscape:groupmode="layer"
     id="g25" />
  <g
     inkscape:label="B.Mask"
     inkscape:groupmode="layer"
     id="g27" />
  <g
     inkscape:label="B.SilkS"
     inkscape:groupmode="layer"
     id="g29" />
  <g
     inkscape:label="F.Cu"
     inkscape:groupmode="layer"
     id="g31" />
  <g
     inkscape:label="F.Mask"
     inkscape:groupmode="layer"
     id="g33" />
  <g
     inkscape:label="F.SilkS"
     inkscape:groupmode="layer"
     id="g35" />
  <g
     inkscape:label="Dwgs.User"
     inkscape:groupmode="layer"
     id="g37" />
</svg>
