%TF.GenerationSoftware,KiCad,Pcbnew,7.0.1*%
%TF.CreationDate,2023-04-13T23:51:24-04:00*%
%TF.ProjectId,YakBak-soldering-kit,59616b42-616b-42d7-936f-6c646572696e,rev?*%
%TF.SameCoordinates,Original*%
%TF.FileFunction,Drillmap*%
%TF.FilePolarity,Positive*%
%FSLAX45Y45*%
G04 Gerber Fmt 4.5, Leading zero omitted, Abs format (unit mm)*
G04 Created by KiCad (PCBNEW 7.0.1) date 2023-04-13 23:51:24*
%MOMM*%
%LPD*%
G01*
G04 APERTURE LIST*
%ADD10C,0.100000*%
%ADD11C,0.200000*%
%ADD12C,0.250000*%
G04 APERTURE END LIST*
D10*
X11886055Y-4828746D02*
X12193071Y-5130698D01*
X12426803Y-5545617D02*
X12475000Y-5742317D01*
X9433263Y-7252365D02*
X9323103Y-7167526D01*
X9323103Y-7167526D02*
X9319935Y-6980393D01*
X10973852Y-4742716D02*
X11035366Y-4767990D01*
X8967105Y-6387158D02*
X8974554Y-5622489D01*
X9046996Y-5412446D02*
X9219426Y-5209801D01*
X12475000Y-11450000D02*
X12498214Y-11450000D01*
X9555962Y-4811835D02*
X10040725Y-4602528D01*
X10040725Y-4602528D02*
X10988954Y-4599174D01*
X12193071Y-5130698D02*
X12426803Y-5545617D01*
X9350000Y-5175000D02*
X9326568Y-5156908D01*
X9326568Y-5156908D02*
X9290120Y-5098467D01*
X11345644Y-4652615D02*
X11367004Y-4652615D01*
X12498214Y-11450000D02*
X12500000Y-10787440D01*
X11035366Y-4767990D02*
X11241272Y-4767990D01*
X11281013Y-4678742D02*
X11345644Y-4652615D01*
X12475000Y-5742317D02*
X12500000Y-5871164D01*
X9062323Y-6746543D02*
X8967105Y-6387158D01*
X10988954Y-4599174D02*
X10973852Y-4742716D01*
X9219426Y-5209801D02*
X9275000Y-5250000D01*
X9319935Y-6980393D02*
X9172367Y-6965350D01*
X9575000Y-11450000D02*
X12475000Y-11450000D01*
X9290120Y-5098467D02*
X9332082Y-5038731D01*
X9062323Y-6746543D02*
X9062323Y-6746543D01*
X9350000Y-5175000D02*
X9348415Y-5232038D01*
X9546865Y-11450000D02*
X9575000Y-11450000D01*
X8974554Y-5622489D02*
X9046996Y-5412446D01*
X12500000Y-5871164D02*
X12500000Y-10787440D01*
X11241272Y-4767990D02*
X11281013Y-4678742D01*
X9332082Y-5038731D02*
X9555962Y-4811835D01*
X9500000Y-7300000D02*
X9505519Y-7329682D01*
X9172367Y-6965350D02*
X9062323Y-6746543D01*
X9275000Y-5250000D02*
X9348415Y-5232038D01*
X9546865Y-11450000D02*
X9503135Y-10008761D01*
X9503135Y-10008761D02*
X9505519Y-7329682D01*
X11367004Y-4652615D02*
X11886055Y-4828746D01*
X9500000Y-7300000D02*
X9433263Y-7252365D01*
D11*
D12*
X9275000Y-6525000D02*
X9525000Y-6775000D01*
X9525000Y-6525000D02*
X9275000Y-6775000D01*
X9628600Y-8485600D02*
X9878600Y-8735600D01*
X9878600Y-8485600D02*
X9628600Y-8735600D01*
X11875000Y-5200000D02*
X12125000Y-5450000D01*
X12125000Y-5200000D02*
X11875000Y-5450000D01*
X11965400Y-8815800D02*
X12215400Y-9065800D01*
X12215400Y-8815800D02*
X11965400Y-9065800D01*
D11*
X9209724Y-11767524D02*
X9209724Y-11567524D01*
X9209724Y-11567524D02*
X9257343Y-11567524D01*
X9257343Y-11567524D02*
X9285915Y-11577048D01*
X9285915Y-11577048D02*
X9304962Y-11596095D01*
X9304962Y-11596095D02*
X9314486Y-11615143D01*
X9314486Y-11615143D02*
X9324010Y-11653238D01*
X9324010Y-11653238D02*
X9324010Y-11681809D01*
X9324010Y-11681809D02*
X9314486Y-11719905D01*
X9314486Y-11719905D02*
X9304962Y-11738952D01*
X9304962Y-11738952D02*
X9285915Y-11758000D01*
X9285915Y-11758000D02*
X9257343Y-11767524D01*
X9257343Y-11767524D02*
X9209724Y-11767524D01*
X9409724Y-11767524D02*
X9409724Y-11634190D01*
X9409724Y-11672286D02*
X9419248Y-11653238D01*
X9419248Y-11653238D02*
X9428772Y-11643714D01*
X9428772Y-11643714D02*
X9447819Y-11634190D01*
X9447819Y-11634190D02*
X9466867Y-11634190D01*
X9533534Y-11767524D02*
X9533534Y-11634190D01*
X9533534Y-11567524D02*
X9524010Y-11577048D01*
X9524010Y-11577048D02*
X9533534Y-11586571D01*
X9533534Y-11586571D02*
X9543057Y-11577048D01*
X9543057Y-11577048D02*
X9533534Y-11567524D01*
X9533534Y-11567524D02*
X9533534Y-11586571D01*
X9657343Y-11767524D02*
X9638295Y-11758000D01*
X9638295Y-11758000D02*
X9628772Y-11738952D01*
X9628772Y-11738952D02*
X9628772Y-11567524D01*
X9762105Y-11767524D02*
X9743057Y-11758000D01*
X9743057Y-11758000D02*
X9733534Y-11738952D01*
X9733534Y-11738952D02*
X9733534Y-11567524D01*
X9990676Y-11767524D02*
X9990676Y-11567524D01*
X9990676Y-11567524D02*
X10057343Y-11710381D01*
X10057343Y-11710381D02*
X10124010Y-11567524D01*
X10124010Y-11567524D02*
X10124010Y-11767524D01*
X10304962Y-11767524D02*
X10304962Y-11662762D01*
X10304962Y-11662762D02*
X10295438Y-11643714D01*
X10295438Y-11643714D02*
X10276391Y-11634190D01*
X10276391Y-11634190D02*
X10238295Y-11634190D01*
X10238295Y-11634190D02*
X10219248Y-11643714D01*
X10304962Y-11758000D02*
X10285915Y-11767524D01*
X10285915Y-11767524D02*
X10238295Y-11767524D01*
X10238295Y-11767524D02*
X10219248Y-11758000D01*
X10219248Y-11758000D02*
X10209724Y-11738952D01*
X10209724Y-11738952D02*
X10209724Y-11719905D01*
X10209724Y-11719905D02*
X10219248Y-11700857D01*
X10219248Y-11700857D02*
X10238295Y-11691333D01*
X10238295Y-11691333D02*
X10285915Y-11691333D01*
X10285915Y-11691333D02*
X10304962Y-11681809D01*
X10400200Y-11634190D02*
X10400200Y-11834190D01*
X10400200Y-11643714D02*
X10419248Y-11634190D01*
X10419248Y-11634190D02*
X10457343Y-11634190D01*
X10457343Y-11634190D02*
X10476391Y-11643714D01*
X10476391Y-11643714D02*
X10485915Y-11653238D01*
X10485915Y-11653238D02*
X10495438Y-11672286D01*
X10495438Y-11672286D02*
X10495438Y-11729428D01*
X10495438Y-11729428D02*
X10485915Y-11748476D01*
X10485915Y-11748476D02*
X10476391Y-11758000D01*
X10476391Y-11758000D02*
X10457343Y-11767524D01*
X10457343Y-11767524D02*
X10419248Y-11767524D01*
X10419248Y-11767524D02*
X10400200Y-11758000D01*
X10581153Y-11748476D02*
X10590676Y-11758000D01*
X10590676Y-11758000D02*
X10581153Y-11767524D01*
X10581153Y-11767524D02*
X10571629Y-11758000D01*
X10571629Y-11758000D02*
X10581153Y-11748476D01*
X10581153Y-11748476D02*
X10581153Y-11767524D01*
X10581153Y-11643714D02*
X10590676Y-11653238D01*
X10590676Y-11653238D02*
X10581153Y-11662762D01*
X10581153Y-11662762D02*
X10571629Y-11653238D01*
X10571629Y-11653238D02*
X10581153Y-11643714D01*
X10581153Y-11643714D02*
X10581153Y-11662762D01*
X8762105Y-11995000D02*
X8962105Y-12195000D01*
X8962105Y-11995000D02*
X8762105Y-12195000D01*
X9200200Y-12006571D02*
X9209724Y-11997048D01*
X9209724Y-11997048D02*
X9228772Y-11987524D01*
X9228772Y-11987524D02*
X9276391Y-11987524D01*
X9276391Y-11987524D02*
X9295438Y-11997048D01*
X9295438Y-11997048D02*
X9304962Y-12006571D01*
X9304962Y-12006571D02*
X9314486Y-12025619D01*
X9314486Y-12025619D02*
X9314486Y-12044667D01*
X9314486Y-12044667D02*
X9304962Y-12073238D01*
X9304962Y-12073238D02*
X9190676Y-12187524D01*
X9190676Y-12187524D02*
X9314486Y-12187524D01*
X9400200Y-12168476D02*
X9409724Y-12178000D01*
X9409724Y-12178000D02*
X9400200Y-12187524D01*
X9400200Y-12187524D02*
X9390676Y-12178000D01*
X9390676Y-12178000D02*
X9400200Y-12168476D01*
X9400200Y-12168476D02*
X9400200Y-12187524D01*
X9590676Y-11987524D02*
X9495438Y-11987524D01*
X9495438Y-11987524D02*
X9485915Y-12082762D01*
X9485915Y-12082762D02*
X9495438Y-12073238D01*
X9495438Y-12073238D02*
X9514486Y-12063714D01*
X9514486Y-12063714D02*
X9562105Y-12063714D01*
X9562105Y-12063714D02*
X9581153Y-12073238D01*
X9581153Y-12073238D02*
X9590676Y-12082762D01*
X9590676Y-12082762D02*
X9600200Y-12101809D01*
X9600200Y-12101809D02*
X9600200Y-12149428D01*
X9600200Y-12149428D02*
X9590676Y-12168476D01*
X9590676Y-12168476D02*
X9581153Y-12178000D01*
X9581153Y-12178000D02*
X9562105Y-12187524D01*
X9562105Y-12187524D02*
X9514486Y-12187524D01*
X9514486Y-12187524D02*
X9495438Y-12178000D01*
X9495438Y-12178000D02*
X9485915Y-12168476D01*
X9724010Y-11987524D02*
X9743057Y-11987524D01*
X9743057Y-11987524D02*
X9762105Y-11997048D01*
X9762105Y-11997048D02*
X9771629Y-12006571D01*
X9771629Y-12006571D02*
X9781153Y-12025619D01*
X9781153Y-12025619D02*
X9790676Y-12063714D01*
X9790676Y-12063714D02*
X9790676Y-12111333D01*
X9790676Y-12111333D02*
X9781153Y-12149428D01*
X9781153Y-12149428D02*
X9771629Y-12168476D01*
X9771629Y-12168476D02*
X9762105Y-12178000D01*
X9762105Y-12178000D02*
X9743057Y-12187524D01*
X9743057Y-12187524D02*
X9724010Y-12187524D01*
X9724010Y-12187524D02*
X9704962Y-12178000D01*
X9704962Y-12178000D02*
X9695438Y-12168476D01*
X9695438Y-12168476D02*
X9685915Y-12149428D01*
X9685915Y-12149428D02*
X9676391Y-12111333D01*
X9676391Y-12111333D02*
X9676391Y-12063714D01*
X9676391Y-12063714D02*
X9685915Y-12025619D01*
X9685915Y-12025619D02*
X9695438Y-12006571D01*
X9695438Y-12006571D02*
X9704962Y-11997048D01*
X9704962Y-11997048D02*
X9724010Y-11987524D01*
X9914486Y-11987524D02*
X9933534Y-11987524D01*
X9933534Y-11987524D02*
X9952581Y-11997048D01*
X9952581Y-11997048D02*
X9962105Y-12006571D01*
X9962105Y-12006571D02*
X9971629Y-12025619D01*
X9971629Y-12025619D02*
X9981153Y-12063714D01*
X9981153Y-12063714D02*
X9981153Y-12111333D01*
X9981153Y-12111333D02*
X9971629Y-12149428D01*
X9971629Y-12149428D02*
X9962105Y-12168476D01*
X9962105Y-12168476D02*
X9952581Y-12178000D01*
X9952581Y-12178000D02*
X9933534Y-12187524D01*
X9933534Y-12187524D02*
X9914486Y-12187524D01*
X9914486Y-12187524D02*
X9895438Y-12178000D01*
X9895438Y-12178000D02*
X9885915Y-12168476D01*
X9885915Y-12168476D02*
X9876391Y-12149428D01*
X9876391Y-12149428D02*
X9866867Y-12111333D01*
X9866867Y-12111333D02*
X9866867Y-12063714D01*
X9866867Y-12063714D02*
X9876391Y-12025619D01*
X9876391Y-12025619D02*
X9885915Y-12006571D01*
X9885915Y-12006571D02*
X9895438Y-11997048D01*
X9895438Y-11997048D02*
X9914486Y-11987524D01*
X10066867Y-12187524D02*
X10066867Y-12054190D01*
X10066867Y-12073238D02*
X10076391Y-12063714D01*
X10076391Y-12063714D02*
X10095438Y-12054190D01*
X10095438Y-12054190D02*
X10124010Y-12054190D01*
X10124010Y-12054190D02*
X10143057Y-12063714D01*
X10143057Y-12063714D02*
X10152581Y-12082762D01*
X10152581Y-12082762D02*
X10152581Y-12187524D01*
X10152581Y-12082762D02*
X10162105Y-12063714D01*
X10162105Y-12063714D02*
X10181153Y-12054190D01*
X10181153Y-12054190D02*
X10209724Y-12054190D01*
X10209724Y-12054190D02*
X10228772Y-12063714D01*
X10228772Y-12063714D02*
X10238296Y-12082762D01*
X10238296Y-12082762D02*
X10238296Y-12187524D01*
X10333534Y-12187524D02*
X10333534Y-12054190D01*
X10333534Y-12073238D02*
X10343057Y-12063714D01*
X10343057Y-12063714D02*
X10362105Y-12054190D01*
X10362105Y-12054190D02*
X10390677Y-12054190D01*
X10390677Y-12054190D02*
X10409724Y-12063714D01*
X10409724Y-12063714D02*
X10419248Y-12082762D01*
X10419248Y-12082762D02*
X10419248Y-12187524D01*
X10419248Y-12082762D02*
X10428772Y-12063714D01*
X10428772Y-12063714D02*
X10447819Y-12054190D01*
X10447819Y-12054190D02*
X10476391Y-12054190D01*
X10476391Y-12054190D02*
X10495438Y-12063714D01*
X10495438Y-12063714D02*
X10504962Y-12082762D01*
X10504962Y-12082762D02*
X10504962Y-12187524D01*
X10895438Y-11978000D02*
X10724010Y-12235143D01*
X11152581Y-11987524D02*
X11171629Y-11987524D01*
X11171629Y-11987524D02*
X11190677Y-11997048D01*
X11190677Y-11997048D02*
X11200200Y-12006571D01*
X11200200Y-12006571D02*
X11209724Y-12025619D01*
X11209724Y-12025619D02*
X11219248Y-12063714D01*
X11219248Y-12063714D02*
X11219248Y-12111333D01*
X11219248Y-12111333D02*
X11209724Y-12149428D01*
X11209724Y-12149428D02*
X11200200Y-12168476D01*
X11200200Y-12168476D02*
X11190677Y-12178000D01*
X11190677Y-12178000D02*
X11171629Y-12187524D01*
X11171629Y-12187524D02*
X11152581Y-12187524D01*
X11152581Y-12187524D02*
X11133534Y-12178000D01*
X11133534Y-12178000D02*
X11124010Y-12168476D01*
X11124010Y-12168476D02*
X11114486Y-12149428D01*
X11114486Y-12149428D02*
X11104962Y-12111333D01*
X11104962Y-12111333D02*
X11104962Y-12063714D01*
X11104962Y-12063714D02*
X11114486Y-12025619D01*
X11114486Y-12025619D02*
X11124010Y-12006571D01*
X11124010Y-12006571D02*
X11133534Y-11997048D01*
X11133534Y-11997048D02*
X11152581Y-11987524D01*
X11304962Y-12168476D02*
X11314486Y-12178000D01*
X11314486Y-12178000D02*
X11304962Y-12187524D01*
X11304962Y-12187524D02*
X11295438Y-12178000D01*
X11295438Y-12178000D02*
X11304962Y-12168476D01*
X11304962Y-12168476D02*
X11304962Y-12187524D01*
X11438296Y-11987524D02*
X11457343Y-11987524D01*
X11457343Y-11987524D02*
X11476391Y-11997048D01*
X11476391Y-11997048D02*
X11485915Y-12006571D01*
X11485915Y-12006571D02*
X11495438Y-12025619D01*
X11495438Y-12025619D02*
X11504962Y-12063714D01*
X11504962Y-12063714D02*
X11504962Y-12111333D01*
X11504962Y-12111333D02*
X11495438Y-12149428D01*
X11495438Y-12149428D02*
X11485915Y-12168476D01*
X11485915Y-12168476D02*
X11476391Y-12178000D01*
X11476391Y-12178000D02*
X11457343Y-12187524D01*
X11457343Y-12187524D02*
X11438296Y-12187524D01*
X11438296Y-12187524D02*
X11419248Y-12178000D01*
X11419248Y-12178000D02*
X11409724Y-12168476D01*
X11409724Y-12168476D02*
X11400200Y-12149428D01*
X11400200Y-12149428D02*
X11390677Y-12111333D01*
X11390677Y-12111333D02*
X11390677Y-12063714D01*
X11390677Y-12063714D02*
X11400200Y-12025619D01*
X11400200Y-12025619D02*
X11409724Y-12006571D01*
X11409724Y-12006571D02*
X11419248Y-11997048D01*
X11419248Y-11997048D02*
X11438296Y-11987524D01*
X11600200Y-12187524D02*
X11638296Y-12187524D01*
X11638296Y-12187524D02*
X11657343Y-12178000D01*
X11657343Y-12178000D02*
X11666867Y-12168476D01*
X11666867Y-12168476D02*
X11685915Y-12139905D01*
X11685915Y-12139905D02*
X11695438Y-12101809D01*
X11695438Y-12101809D02*
X11695438Y-12025619D01*
X11695438Y-12025619D02*
X11685915Y-12006571D01*
X11685915Y-12006571D02*
X11676391Y-11997048D01*
X11676391Y-11997048D02*
X11657343Y-11987524D01*
X11657343Y-11987524D02*
X11619248Y-11987524D01*
X11619248Y-11987524D02*
X11600200Y-11997048D01*
X11600200Y-11997048D02*
X11590677Y-12006571D01*
X11590677Y-12006571D02*
X11581153Y-12025619D01*
X11581153Y-12025619D02*
X11581153Y-12073238D01*
X11581153Y-12073238D02*
X11590677Y-12092286D01*
X11590677Y-12092286D02*
X11600200Y-12101809D01*
X11600200Y-12101809D02*
X11619248Y-12111333D01*
X11619248Y-12111333D02*
X11657343Y-12111333D01*
X11657343Y-12111333D02*
X11676391Y-12101809D01*
X11676391Y-12101809D02*
X11685915Y-12092286D01*
X11685915Y-12092286D02*
X11695438Y-12073238D01*
X11809724Y-12073238D02*
X11790677Y-12063714D01*
X11790677Y-12063714D02*
X11781153Y-12054190D01*
X11781153Y-12054190D02*
X11771629Y-12035143D01*
X11771629Y-12035143D02*
X11771629Y-12025619D01*
X11771629Y-12025619D02*
X11781153Y-12006571D01*
X11781153Y-12006571D02*
X11790677Y-11997048D01*
X11790677Y-11997048D02*
X11809724Y-11987524D01*
X11809724Y-11987524D02*
X11847819Y-11987524D01*
X11847819Y-11987524D02*
X11866867Y-11997048D01*
X11866867Y-11997048D02*
X11876391Y-12006571D01*
X11876391Y-12006571D02*
X11885915Y-12025619D01*
X11885915Y-12025619D02*
X11885915Y-12035143D01*
X11885915Y-12035143D02*
X11876391Y-12054190D01*
X11876391Y-12054190D02*
X11866867Y-12063714D01*
X11866867Y-12063714D02*
X11847819Y-12073238D01*
X11847819Y-12073238D02*
X11809724Y-12073238D01*
X11809724Y-12073238D02*
X11790677Y-12082762D01*
X11790677Y-12082762D02*
X11781153Y-12092286D01*
X11781153Y-12092286D02*
X11771629Y-12111333D01*
X11771629Y-12111333D02*
X11771629Y-12149428D01*
X11771629Y-12149428D02*
X11781153Y-12168476D01*
X11781153Y-12168476D02*
X11790677Y-12178000D01*
X11790677Y-12178000D02*
X11809724Y-12187524D01*
X11809724Y-12187524D02*
X11847819Y-12187524D01*
X11847819Y-12187524D02*
X11866867Y-12178000D01*
X11866867Y-12178000D02*
X11876391Y-12168476D01*
X11876391Y-12168476D02*
X11885915Y-12149428D01*
X11885915Y-12149428D02*
X11885915Y-12111333D01*
X11885915Y-12111333D02*
X11876391Y-12092286D01*
X11876391Y-12092286D02*
X11866867Y-12082762D01*
X11866867Y-12082762D02*
X11847819Y-12073238D01*
X12057343Y-12054190D02*
X12057343Y-12187524D01*
X12009724Y-11978000D02*
X11962105Y-12120857D01*
X11962105Y-12120857D02*
X12085915Y-12120857D01*
X12152581Y-11987524D02*
X12152581Y-12025619D01*
X12228772Y-11987524D02*
X12228772Y-12025619D01*
X12524010Y-12263714D02*
X12514486Y-12254190D01*
X12514486Y-12254190D02*
X12495439Y-12225619D01*
X12495439Y-12225619D02*
X12485915Y-12206571D01*
X12485915Y-12206571D02*
X12476391Y-12178000D01*
X12476391Y-12178000D02*
X12466867Y-12130381D01*
X12466867Y-12130381D02*
X12466867Y-12092286D01*
X12466867Y-12092286D02*
X12476391Y-12044667D01*
X12476391Y-12044667D02*
X12485915Y-12016095D01*
X12485915Y-12016095D02*
X12495439Y-11997048D01*
X12495439Y-11997048D02*
X12514486Y-11968476D01*
X12514486Y-11968476D02*
X12524010Y-11958952D01*
X12685915Y-12054190D02*
X12685915Y-12187524D01*
X12638296Y-11978000D02*
X12590677Y-12120857D01*
X12590677Y-12120857D02*
X12714486Y-12120857D01*
X12943058Y-12187524D02*
X12943058Y-11987524D01*
X13028772Y-12187524D02*
X13028772Y-12082762D01*
X13028772Y-12082762D02*
X13019248Y-12063714D01*
X13019248Y-12063714D02*
X13000201Y-12054190D01*
X13000201Y-12054190D02*
X12971629Y-12054190D01*
X12971629Y-12054190D02*
X12952581Y-12063714D01*
X12952581Y-12063714D02*
X12943058Y-12073238D01*
X13152581Y-12187524D02*
X13133534Y-12178000D01*
X13133534Y-12178000D02*
X13124010Y-12168476D01*
X13124010Y-12168476D02*
X13114486Y-12149428D01*
X13114486Y-12149428D02*
X13114486Y-12092286D01*
X13114486Y-12092286D02*
X13124010Y-12073238D01*
X13124010Y-12073238D02*
X13133534Y-12063714D01*
X13133534Y-12063714D02*
X13152581Y-12054190D01*
X13152581Y-12054190D02*
X13181153Y-12054190D01*
X13181153Y-12054190D02*
X13200201Y-12063714D01*
X13200201Y-12063714D02*
X13209724Y-12073238D01*
X13209724Y-12073238D02*
X13219248Y-12092286D01*
X13219248Y-12092286D02*
X13219248Y-12149428D01*
X13219248Y-12149428D02*
X13209724Y-12168476D01*
X13209724Y-12168476D02*
X13200201Y-12178000D01*
X13200201Y-12178000D02*
X13181153Y-12187524D01*
X13181153Y-12187524D02*
X13152581Y-12187524D01*
X13333534Y-12187524D02*
X13314486Y-12178000D01*
X13314486Y-12178000D02*
X13304962Y-12158952D01*
X13304962Y-12158952D02*
X13304962Y-11987524D01*
X13485915Y-12178000D02*
X13466867Y-12187524D01*
X13466867Y-12187524D02*
X13428772Y-12187524D01*
X13428772Y-12187524D02*
X13409724Y-12178000D01*
X13409724Y-12178000D02*
X13400201Y-12158952D01*
X13400201Y-12158952D02*
X13400201Y-12082762D01*
X13400201Y-12082762D02*
X13409724Y-12063714D01*
X13409724Y-12063714D02*
X13428772Y-12054190D01*
X13428772Y-12054190D02*
X13466867Y-12054190D01*
X13466867Y-12054190D02*
X13485915Y-12063714D01*
X13485915Y-12063714D02*
X13495439Y-12082762D01*
X13495439Y-12082762D02*
X13495439Y-12101809D01*
X13495439Y-12101809D02*
X13400201Y-12120857D01*
X13571629Y-12178000D02*
X13590677Y-12187524D01*
X13590677Y-12187524D02*
X13628772Y-12187524D01*
X13628772Y-12187524D02*
X13647820Y-12178000D01*
X13647820Y-12178000D02*
X13657343Y-12158952D01*
X13657343Y-12158952D02*
X13657343Y-12149428D01*
X13657343Y-12149428D02*
X13647820Y-12130381D01*
X13647820Y-12130381D02*
X13628772Y-12120857D01*
X13628772Y-12120857D02*
X13600201Y-12120857D01*
X13600201Y-12120857D02*
X13581153Y-12111333D01*
X13581153Y-12111333D02*
X13571629Y-12092286D01*
X13571629Y-12092286D02*
X13571629Y-12082762D01*
X13571629Y-12082762D02*
X13581153Y-12063714D01*
X13581153Y-12063714D02*
X13600201Y-12054190D01*
X13600201Y-12054190D02*
X13628772Y-12054190D01*
X13628772Y-12054190D02*
X13647820Y-12063714D01*
X13724010Y-12263714D02*
X13733534Y-12254190D01*
X13733534Y-12254190D02*
X13752582Y-12225619D01*
X13752582Y-12225619D02*
X13762105Y-12206571D01*
X13762105Y-12206571D02*
X13771629Y-12178000D01*
X13771629Y-12178000D02*
X13781153Y-12130381D01*
X13781153Y-12130381D02*
X13781153Y-12092286D01*
X13781153Y-12092286D02*
X13771629Y-12044667D01*
X13771629Y-12044667D02*
X13762105Y-12016095D01*
X13762105Y-12016095D02*
X13752582Y-11997048D01*
X13752582Y-11997048D02*
X13733534Y-11968476D01*
X13733534Y-11968476D02*
X13724010Y-11958952D01*
X14085915Y-12263714D02*
X14076391Y-12254190D01*
X14076391Y-12254190D02*
X14057343Y-12225619D01*
X14057343Y-12225619D02*
X14047820Y-12206571D01*
X14047820Y-12206571D02*
X14038296Y-12178000D01*
X14038296Y-12178000D02*
X14028772Y-12130381D01*
X14028772Y-12130381D02*
X14028772Y-12092286D01*
X14028772Y-12092286D02*
X14038296Y-12044667D01*
X14038296Y-12044667D02*
X14047820Y-12016095D01*
X14047820Y-12016095D02*
X14057343Y-11997048D01*
X14057343Y-11997048D02*
X14076391Y-11968476D01*
X14076391Y-11968476D02*
X14085915Y-11958952D01*
X14162105Y-12054190D02*
X14162105Y-12187524D01*
X14162105Y-12073238D02*
X14171629Y-12063714D01*
X14171629Y-12063714D02*
X14190677Y-12054190D01*
X14190677Y-12054190D02*
X14219248Y-12054190D01*
X14219248Y-12054190D02*
X14238296Y-12063714D01*
X14238296Y-12063714D02*
X14247820Y-12082762D01*
X14247820Y-12082762D02*
X14247820Y-12187524D01*
X14371629Y-12187524D02*
X14352582Y-12178000D01*
X14352582Y-12178000D02*
X14343058Y-12168476D01*
X14343058Y-12168476D02*
X14333534Y-12149428D01*
X14333534Y-12149428D02*
X14333534Y-12092286D01*
X14333534Y-12092286D02*
X14343058Y-12073238D01*
X14343058Y-12073238D02*
X14352582Y-12063714D01*
X14352582Y-12063714D02*
X14371629Y-12054190D01*
X14371629Y-12054190D02*
X14400201Y-12054190D01*
X14400201Y-12054190D02*
X14419248Y-12063714D01*
X14419248Y-12063714D02*
X14428772Y-12073238D01*
X14428772Y-12073238D02*
X14438296Y-12092286D01*
X14438296Y-12092286D02*
X14438296Y-12149428D01*
X14438296Y-12149428D02*
X14428772Y-12168476D01*
X14428772Y-12168476D02*
X14419248Y-12178000D01*
X14419248Y-12178000D02*
X14400201Y-12187524D01*
X14400201Y-12187524D02*
X14371629Y-12187524D01*
X14495439Y-12054190D02*
X14571629Y-12054190D01*
X14524010Y-11987524D02*
X14524010Y-12158952D01*
X14524010Y-12158952D02*
X14533534Y-12178000D01*
X14533534Y-12178000D02*
X14552582Y-12187524D01*
X14552582Y-12187524D02*
X14571629Y-12187524D01*
X14790677Y-12054190D02*
X14790677Y-12254190D01*
X14790677Y-12063714D02*
X14809724Y-12054190D01*
X14809724Y-12054190D02*
X14847820Y-12054190D01*
X14847820Y-12054190D02*
X14866867Y-12063714D01*
X14866867Y-12063714D02*
X14876391Y-12073238D01*
X14876391Y-12073238D02*
X14885915Y-12092286D01*
X14885915Y-12092286D02*
X14885915Y-12149428D01*
X14885915Y-12149428D02*
X14876391Y-12168476D01*
X14876391Y-12168476D02*
X14866867Y-12178000D01*
X14866867Y-12178000D02*
X14847820Y-12187524D01*
X14847820Y-12187524D02*
X14809724Y-12187524D01*
X14809724Y-12187524D02*
X14790677Y-12178000D01*
X15000201Y-12187524D02*
X14981153Y-12178000D01*
X14981153Y-12178000D02*
X14971629Y-12158952D01*
X14971629Y-12158952D02*
X14971629Y-11987524D01*
X15162105Y-12187524D02*
X15162105Y-12082762D01*
X15162105Y-12082762D02*
X15152582Y-12063714D01*
X15152582Y-12063714D02*
X15133534Y-12054190D01*
X15133534Y-12054190D02*
X15095439Y-12054190D01*
X15095439Y-12054190D02*
X15076391Y-12063714D01*
X15162105Y-12178000D02*
X15143058Y-12187524D01*
X15143058Y-12187524D02*
X15095439Y-12187524D01*
X15095439Y-12187524D02*
X15076391Y-12178000D01*
X15076391Y-12178000D02*
X15066867Y-12158952D01*
X15066867Y-12158952D02*
X15066867Y-12139905D01*
X15066867Y-12139905D02*
X15076391Y-12120857D01*
X15076391Y-12120857D02*
X15095439Y-12111333D01*
X15095439Y-12111333D02*
X15143058Y-12111333D01*
X15143058Y-12111333D02*
X15162105Y-12101809D01*
X15228772Y-12054190D02*
X15304963Y-12054190D01*
X15257344Y-11987524D02*
X15257344Y-12158952D01*
X15257344Y-12158952D02*
X15266867Y-12178000D01*
X15266867Y-12178000D02*
X15285915Y-12187524D01*
X15285915Y-12187524D02*
X15304963Y-12187524D01*
X15447820Y-12178000D02*
X15428772Y-12187524D01*
X15428772Y-12187524D02*
X15390677Y-12187524D01*
X15390677Y-12187524D02*
X15371629Y-12178000D01*
X15371629Y-12178000D02*
X15362105Y-12158952D01*
X15362105Y-12158952D02*
X15362105Y-12082762D01*
X15362105Y-12082762D02*
X15371629Y-12063714D01*
X15371629Y-12063714D02*
X15390677Y-12054190D01*
X15390677Y-12054190D02*
X15428772Y-12054190D01*
X15428772Y-12054190D02*
X15447820Y-12063714D01*
X15447820Y-12063714D02*
X15457344Y-12082762D01*
X15457344Y-12082762D02*
X15457344Y-12101809D01*
X15457344Y-12101809D02*
X15362105Y-12120857D01*
X15628772Y-12187524D02*
X15628772Y-11987524D01*
X15628772Y-12178000D02*
X15609725Y-12187524D01*
X15609725Y-12187524D02*
X15571629Y-12187524D01*
X15571629Y-12187524D02*
X15552582Y-12178000D01*
X15552582Y-12178000D02*
X15543058Y-12168476D01*
X15543058Y-12168476D02*
X15533534Y-12149428D01*
X15533534Y-12149428D02*
X15533534Y-12092286D01*
X15533534Y-12092286D02*
X15543058Y-12073238D01*
X15543058Y-12073238D02*
X15552582Y-12063714D01*
X15552582Y-12063714D02*
X15571629Y-12054190D01*
X15571629Y-12054190D02*
X15609725Y-12054190D01*
X15609725Y-12054190D02*
X15628772Y-12063714D01*
X15704963Y-12263714D02*
X15714486Y-12254190D01*
X15714486Y-12254190D02*
X15733534Y-12225619D01*
X15733534Y-12225619D02*
X15743058Y-12206571D01*
X15743058Y-12206571D02*
X15752582Y-12178000D01*
X15752582Y-12178000D02*
X15762105Y-12130381D01*
X15762105Y-12130381D02*
X15762105Y-12092286D01*
X15762105Y-12092286D02*
X15752582Y-12044667D01*
X15752582Y-12044667D02*
X15743058Y-12016095D01*
X15743058Y-12016095D02*
X15733534Y-11997048D01*
X15733534Y-11997048D02*
X15714486Y-11968476D01*
X15714486Y-11968476D02*
X15704963Y-11958952D01*
M02*
