%TF.GenerationSoftware,KiCad,Pcbnew,7.0.1*%
%TF.CreationDate,2023-04-13T23:50:02-04:00*%
%TF.ProjectId,YakBak-soldering-kit,59616b42-616b-42d7-936f-6c646572696e,rev?*%
%TF.SameCoordinates,Original*%
%TF.FileFunction,Profile,NP*%
%FSLAX46Y46*%
G04 Gerber Fmt 4.6, Leading zero omitted, Abs format (unit mm)*
G04 Created by KiCad (PCBNEW 7.0.1) date 2023-04-13 23:50:02*
%MOMM*%
%LPD*%
G01*
G04 APERTURE LIST*
%TA.AperFunction,Profile*%
%ADD10C,0.100000*%
%TD*%
G04 APERTURE END LIST*
D10*
X118860550Y-48287460D02*
X121930710Y-51306980D01*
X124268030Y-55456170D02*
X124750000Y-57423170D01*
X94332630Y-72523650D02*
X93231030Y-71675260D01*
X93231030Y-71675260D02*
X93199350Y-69803930D01*
X109738520Y-47427157D02*
X110353660Y-47679897D01*
X89671050Y-63871580D02*
X89745540Y-56224890D01*
X90469960Y-54124460D02*
X92194260Y-52098010D01*
X124750000Y-114500000D02*
X124982145Y-114500000D01*
X95559620Y-48118350D02*
X100407250Y-46025277D01*
X100407250Y-46025277D02*
X109889540Y-45991737D01*
X121930710Y-51306980D02*
X124268030Y-55456170D01*
X93500000Y-51750000D02*
X93265680Y-51569080D01*
X93265680Y-51569080D02*
X92901200Y-50984670D01*
X113456445Y-46526147D02*
X113670040Y-46526147D01*
X124982145Y-114500000D02*
X125000000Y-107874400D01*
X110353660Y-47679897D02*
X112412725Y-47679897D01*
X112810135Y-46787417D02*
X113456445Y-46526147D01*
X124750000Y-57423170D02*
X125000000Y-58711640D01*
X90623230Y-67465430D02*
X89671050Y-63871580D01*
X109889540Y-45991737D02*
X109738520Y-47427157D01*
X92194260Y-52098010D02*
X92750000Y-52500000D01*
X93199350Y-69803930D02*
X91723670Y-69653500D01*
X95750000Y-114500000D02*
X124750000Y-114500000D01*
X92901200Y-50984670D02*
X93320820Y-50387310D01*
X90623230Y-67465430D02*
X90623230Y-67465430D01*
X93500000Y-51750000D02*
X93484145Y-52320380D01*
X95468650Y-114500000D02*
X95750000Y-114500000D01*
X89745540Y-56224890D02*
X90469960Y-54124460D01*
X125000000Y-58711640D02*
X125000000Y-107874400D01*
X112412725Y-47679897D02*
X112810135Y-46787417D01*
X93320820Y-50387310D02*
X95559620Y-48118350D01*
X95000000Y-73000000D02*
X95055190Y-73296820D01*
X91723670Y-69653500D02*
X90623230Y-67465430D01*
X92750000Y-52500000D02*
X93484145Y-52320380D01*
X95468650Y-114500000D02*
X95031350Y-100087610D01*
X95031350Y-100087610D02*
X95055190Y-73296820D01*
X113670040Y-46526147D02*
X118860550Y-48287460D01*
X95000000Y-73000000D02*
X94332630Y-72523650D01*
M02*
