%TF.GenerationSoftware,KiCad,Pcbnew,7.0.1*%
%TF.CreationDate,2023-04-13T23:50:02-04:00*%
%TF.ProjectId,YakBak-soldering-kit,59616b42-616b-42d7-936f-6c646572696e,rev?*%
%TF.SameCoordinates,Original*%
%TF.FileFunction,Soldermask,Top*%
%TF.FilePolarity,Negative*%
%FSLAX46Y46*%
G04 Gerber Fmt 4.6, Leading zero omitted, Abs format (unit mm)*
G04 Created by KiCad (PCBNEW 7.0.1) date 2023-04-13 23:50:02*
%MOMM*%
%LPD*%
G01*
G04 APERTURE LIST*
G04 Aperture macros list*
%AMRoundRect*
0 Rectangle with rounded corners*
0 $1 Rounding radius*
0 $2 $3 $4 $5 $6 $7 $8 $9 X,Y pos of 4 corners*
0 Add a 4 corners polygon primitive as box body*
4,1,4,$2,$3,$4,$5,$6,$7,$8,$9,$2,$3,0*
0 Add four circle primitives for the rounded corners*
1,1,$1+$1,$2,$3*
1,1,$1+$1,$4,$5*
1,1,$1+$1,$6,$7*
1,1,$1+$1,$8,$9*
0 Add four rect primitives between the rounded corners*
20,1,$1+$1,$2,$3,$4,$5,0*
20,1,$1+$1,$4,$5,$6,$7,0*
20,1,$1+$1,$6,$7,$8,$9,0*
20,1,$1+$1,$8,$9,$2,$3,0*%
G04 Aperture macros list end*
%ADD10RoundRect,0.200000X0.850000X0.850000X-0.850000X0.850000X-0.850000X-0.850000X0.850000X-0.850000X0*%
%ADD11O,2.100000X2.100000*%
%ADD12C,2.400000*%
%ADD13RoundRect,0.200000X-0.850000X-0.850000X0.850000X-0.850000X0.850000X0.850000X-0.850000X0.850000X0*%
%ADD14RoundRect,1.200000X0.875000X0.000000X-0.875000X0.000000X-0.875000X0.000000X0.875000X0.000000X0*%
%ADD15C,2.900000*%
%ADD16C,2.000000*%
%ADD17C,1.800000*%
%ADD18O,1.800000X1.800000*%
%ADD19RoundRect,0.200000X-0.850000X0.850000X-0.850000X-0.850000X0.850000X-0.850000X0.850000X0.850000X0*%
G04 APERTURE END LIST*
D10*
%TO.C,J2*%
X122250000Y-109660000D03*
D11*
X122250000Y-107120000D03*
X122250000Y-104580000D03*
X122250000Y-102040000D03*
X122250000Y-99500000D03*
X122250000Y-96960000D03*
X122250000Y-94420000D03*
%TD*%
D12*
%TO.C,SW1*%
X97000000Y-76500000D03*
X103500000Y-76500000D03*
X97000000Y-81000000D03*
X103500000Y-81000000D03*
%TD*%
D13*
%TO.C,J1*%
X97500000Y-94420000D03*
D11*
X97500000Y-96960000D03*
X97500000Y-99500000D03*
X97500000Y-102040000D03*
X97500000Y-104580000D03*
X97500000Y-107120000D03*
X97500000Y-109660000D03*
%TD*%
D12*
%TO.C,SW2*%
X102212000Y-84750000D03*
X108712000Y-84750000D03*
X102212000Y-89250000D03*
X108712000Y-89250000D03*
%TD*%
D14*
%TO.C,U1*%
X118582500Y-109750700D03*
X118582500Y-107210700D03*
X118582500Y-104670700D03*
X118582500Y-102130700D03*
X118582500Y-99590700D03*
X118582500Y-97050700D03*
X118582500Y-94510700D03*
X101417500Y-94510700D03*
X101417500Y-97050700D03*
X101417500Y-99590700D03*
X101417500Y-102130700D03*
X101417500Y-104670700D03*
X101417500Y-107210700D03*
X101417500Y-109750700D03*
%TD*%
D15*
%TO.C,H4*%
X120000000Y-53250000D03*
%TD*%
%TO.C,H1*%
X120904000Y-89408000D03*
%TD*%
D16*
%TO.C,C1*%
X119750000Y-81750000D03*
X119750000Y-76750000D03*
%TD*%
D15*
%TO.C,H2*%
X94000000Y-66500000D03*
%TD*%
%TO.C,H3*%
X97536000Y-86106000D03*
%TD*%
D13*
%TO.C,U2*%
X94250000Y-54960000D03*
D11*
X94250000Y-57500000D03*
X94250000Y-60040000D03*
%TD*%
D17*
%TO.C,R1*%
X120250000Y-71310000D03*
D18*
X120250000Y-63690000D03*
%TD*%
D19*
%TO.C,U3*%
X111760000Y-85250000D03*
D11*
X114300000Y-85250000D03*
X116840000Y-85250000D03*
X119380000Y-85250000D03*
X121920000Y-85250000D03*
%TD*%
M02*
