M48
; DRILL file {KiCad 7.0.1} date Thu Apr 13 23:50:49 2023
; FORMAT={-:-/ absolute / metric / decimal}
; #@! TF.CreationDate,2023-04-13T23:50:49-04:00
; #@! TF.GenerationSoftware,Kicad,Pcbnew,7.0.1
; #@! TF.FileFunction,Plated,1,2,PTH
FMAT,2
METRIC
; #@! TA.AperFunction,Plated,PTH,ViaDrill
T1C0.400
; #@! TA.AperFunction,Plated,PTH,ComponentDrill
T2C0.700
; #@! TA.AperFunction,Plated,PTH,ComponentDrill
T3C0.800
; #@! TA.AperFunction,Plated,PTH,ComponentDrill
T4C1.000
; #@! TA.AperFunction,Plated,PTH,ComponentDrill
T5C1.100
%
G90
G05
T1
X100.965Y-82.804
X101.925Y-92.273
X104.0Y-96.0
X104.5Y-102.75
X105.7Y-62.663
X107.95Y-71.31
X114.75Y-97.028
X116.688Y-92.812
T2
X120.25Y-63.69
X120.25Y-71.31
T3
X119.75Y-76.75
X119.75Y-81.75
T4
X94.25Y-54.96
X94.25Y-57.5
X94.25Y-60.04
X97.5Y-94.42
X97.5Y-96.96
X97.5Y-99.5
X97.5Y-102.04
X97.5Y-104.58
X97.5Y-107.12
X97.5Y-109.66
X111.76Y-85.25
X114.3Y-85.25
X116.84Y-85.25
X119.38Y-85.25
X121.92Y-85.25
X122.25Y-94.42
X122.25Y-96.96
X122.25Y-99.5
X122.25Y-102.04
X122.25Y-104.58
X122.25Y-107.12
X122.25Y-109.66
T5
X97.0Y-76.5
X97.0Y-81.0
X102.212Y-84.75
X102.212Y-89.25
X103.5Y-76.5
X103.5Y-81.0
X108.712Y-84.75
X108.712Y-89.25
T0
M30
