%TF.GenerationSoftware,KiCad,Pcbnew,7.0.1*%
%TF.CreationDate,2023-04-13T23:51:24-04:00*%
%TF.ProjectId,YakBak-soldering-kit,59616b42-616b-42d7-936f-6c646572696e,rev?*%
%TF.SameCoordinates,Original*%
%TF.FileFunction,Drillmap*%
%TF.FilePolarity,Positive*%
%FSLAX45Y45*%
G04 Gerber Fmt 4.5, Leading zero omitted, Abs format (unit mm)*
G04 Created by KiCad (PCBNEW 7.0.1) date 2023-04-13 23:51:24*
%MOMM*%
%LPD*%
G01*
G04 APERTURE LIST*
%ADD10C,0.100000*%
%ADD11C,0.200000*%
%ADD12C,0.040000*%
%ADD13C,0.070000*%
%ADD14C,0.080000*%
%ADD15C,0.110000*%
G04 APERTURE END LIST*
D10*
X11886055Y-4828746D02*
X12193071Y-5130698D01*
X12426803Y-5545617D02*
X12475000Y-5742317D01*
X9433263Y-7252365D02*
X9323103Y-7167526D01*
X9323103Y-7167526D02*
X9319935Y-6980393D01*
X10973852Y-4742716D02*
X11035366Y-4767990D01*
X8967105Y-6387158D02*
X8974554Y-5622489D01*
X9046996Y-5412446D02*
X9219426Y-5209801D01*
X12475000Y-11450000D02*
X12498214Y-11450000D01*
X9555962Y-4811835D02*
X10040725Y-4602528D01*
X10040725Y-4602528D02*
X10988954Y-4599174D01*
X12193071Y-5130698D02*
X12426803Y-5545617D01*
X9350000Y-5175000D02*
X9326568Y-5156908D01*
X9326568Y-5156908D02*
X9290120Y-5098467D01*
X11345644Y-4652615D02*
X11367004Y-4652615D01*
X12498214Y-11450000D02*
X12500000Y-10787440D01*
X11035366Y-4767990D02*
X11241272Y-4767990D01*
X11281013Y-4678742D02*
X11345644Y-4652615D01*
X12475000Y-5742317D02*
X12500000Y-5871164D01*
X9062323Y-6746543D02*
X8967105Y-6387158D01*
X10988954Y-4599174D02*
X10973852Y-4742716D01*
X9219426Y-5209801D02*
X9275000Y-5250000D01*
X9319935Y-6980393D02*
X9172367Y-6965350D01*
X9575000Y-11450000D02*
X12475000Y-11450000D01*
X9290120Y-5098467D02*
X9332082Y-5038731D01*
X9062323Y-6746543D02*
X9062323Y-6746543D01*
X9350000Y-5175000D02*
X9348415Y-5232038D01*
X9546865Y-11450000D02*
X9575000Y-11450000D01*
X8974554Y-5622489D02*
X9046996Y-5412446D01*
X12500000Y-5871164D02*
X12500000Y-10787440D01*
X11241272Y-4767990D02*
X11281013Y-4678742D01*
X9332082Y-5038731D02*
X9555962Y-4811835D01*
X9500000Y-7300000D02*
X9505519Y-7329682D01*
X9172367Y-6965350D02*
X9062323Y-6746543D01*
X9275000Y-5250000D02*
X9348415Y-5232038D01*
X9546865Y-11450000D02*
X9503135Y-10008761D01*
X9503135Y-10008761D02*
X9505519Y-7329682D01*
X11367004Y-4652615D02*
X11886055Y-4828746D01*
X9500000Y-7300000D02*
X9433263Y-7252365D01*
D11*
D12*
X10076500Y-8260400D02*
X10116500Y-8300400D01*
X10116500Y-8260400D02*
X10076500Y-8300400D01*
X10172500Y-9207300D02*
X10212500Y-9247300D01*
X10212500Y-9207300D02*
X10172500Y-9247300D01*
X10380000Y-9580000D02*
X10420000Y-9620000D01*
X10420000Y-9580000D02*
X10380000Y-9620000D01*
X10430000Y-10255000D02*
X10470000Y-10295000D01*
X10470000Y-10255000D02*
X10430000Y-10295000D01*
X10550000Y-6246270D02*
X10590000Y-6286270D01*
X10590000Y-6246270D02*
X10550000Y-6286270D01*
X10775000Y-7111000D02*
X10815000Y-7151000D01*
X10815000Y-7111000D02*
X10775000Y-7151000D01*
X11455000Y-9682800D02*
X11495000Y-9722800D01*
X11495000Y-9682800D02*
X11455000Y-9722800D01*
X11648800Y-9261200D02*
X11688800Y-9301200D01*
X11688800Y-9261200D02*
X11648800Y-9301200D01*
D13*
X12060000Y-6369000D02*
G75*
G03*
X12060000Y-6369000I-35000J0D01*
G01*
X12060000Y-7131000D02*
G75*
G03*
X12060000Y-7131000I-35000J0D01*
G01*
D14*
X11975000Y-7635000D02*
X11975000Y-7715000D01*
X11935000Y-7675000D02*
X12015000Y-7675000D01*
X11975000Y-8135000D02*
X11975000Y-8215000D01*
X11935000Y-8175000D02*
X12015000Y-8175000D01*
D10*
X9460356Y-5531356D02*
X9460356Y-5460644D01*
X9389644Y-5460644D01*
X9389644Y-5531356D01*
X9460356Y-5531356D01*
X9460356Y-5785356D02*
X9460356Y-5714644D01*
X9389644Y-5714644D01*
X9389644Y-5785356D01*
X9460356Y-5785356D01*
X9460356Y-6039356D02*
X9460356Y-5968644D01*
X9389644Y-5968644D01*
X9389644Y-6039356D01*
X9460356Y-6039356D01*
X9785356Y-9477356D02*
X9785356Y-9406644D01*
X9714644Y-9406644D01*
X9714644Y-9477356D01*
X9785356Y-9477356D01*
X9785356Y-9731356D02*
X9785356Y-9660644D01*
X9714644Y-9660644D01*
X9714644Y-9731356D01*
X9785356Y-9731356D01*
X9785356Y-9985356D02*
X9785356Y-9914644D01*
X9714644Y-9914644D01*
X9714644Y-9985356D01*
X9785356Y-9985356D01*
X9785356Y-10239356D02*
X9785356Y-10168644D01*
X9714644Y-10168644D01*
X9714644Y-10239356D01*
X9785356Y-10239356D01*
X9785356Y-10493356D02*
X9785356Y-10422644D01*
X9714644Y-10422644D01*
X9714644Y-10493356D01*
X9785356Y-10493356D01*
X9785356Y-10747356D02*
X9785356Y-10676644D01*
X9714644Y-10676644D01*
X9714644Y-10747356D01*
X9785356Y-10747356D01*
X9785356Y-11001356D02*
X9785356Y-10930644D01*
X9714644Y-10930644D01*
X9714644Y-11001356D01*
X9785356Y-11001356D01*
X11211356Y-8560356D02*
X11211356Y-8489644D01*
X11140644Y-8489644D01*
X11140644Y-8560356D01*
X11211356Y-8560356D01*
X11465356Y-8560356D02*
X11465356Y-8489644D01*
X11394644Y-8489644D01*
X11394644Y-8560356D01*
X11465356Y-8560356D01*
X11719356Y-8560356D02*
X11719356Y-8489644D01*
X11648644Y-8489644D01*
X11648644Y-8560356D01*
X11719356Y-8560356D01*
X11973356Y-8560356D02*
X11973356Y-8489644D01*
X11902644Y-8489644D01*
X11902644Y-8560356D01*
X11973356Y-8560356D01*
X12227356Y-8560356D02*
X12227356Y-8489644D01*
X12156644Y-8489644D01*
X12156644Y-8560356D01*
X12227356Y-8560356D01*
X12260356Y-9477356D02*
X12260356Y-9406644D01*
X12189644Y-9406644D01*
X12189644Y-9477356D01*
X12260356Y-9477356D01*
X12260356Y-9731356D02*
X12260356Y-9660644D01*
X12189644Y-9660644D01*
X12189644Y-9731356D01*
X12260356Y-9731356D01*
X12260356Y-9985356D02*
X12260356Y-9914644D01*
X12189644Y-9914644D01*
X12189644Y-9985356D01*
X12260356Y-9985356D01*
X12260356Y-10239356D02*
X12260356Y-10168644D01*
X12189644Y-10168644D01*
X12189644Y-10239356D01*
X12260356Y-10239356D01*
X12260356Y-10493356D02*
X12260356Y-10422644D01*
X12189644Y-10422644D01*
X12189644Y-10493356D01*
X12260356Y-10493356D01*
X12260356Y-10747356D02*
X12260356Y-10676644D01*
X12189644Y-10676644D01*
X12189644Y-10747356D01*
X12260356Y-10747356D01*
X12260356Y-11001356D02*
X12260356Y-10930644D01*
X12189644Y-10930644D01*
X12189644Y-11001356D01*
X12260356Y-11001356D01*
D15*
X9700000Y-7705000D02*
X9755000Y-7650000D01*
X9700000Y-7595000D01*
X9645000Y-7650000D01*
X9700000Y-7705000D01*
X9700000Y-8155000D02*
X9755000Y-8100000D01*
X9700000Y-8045000D01*
X9645000Y-8100000D01*
X9700000Y-8155000D01*
X10221200Y-8530000D02*
X10276200Y-8475000D01*
X10221200Y-8420000D01*
X10166200Y-8475000D01*
X10221200Y-8530000D01*
X10221200Y-8980000D02*
X10276200Y-8925000D01*
X10221200Y-8870000D01*
X10166200Y-8925000D01*
X10221200Y-8980000D01*
X10350000Y-7705000D02*
X10405000Y-7650000D01*
X10350000Y-7595000D01*
X10295000Y-7650000D01*
X10350000Y-7705000D01*
X10350000Y-8155000D02*
X10405000Y-8100000D01*
X10350000Y-8045000D01*
X10295000Y-8100000D01*
X10350000Y-8155000D01*
X10871200Y-8530000D02*
X10926200Y-8475000D01*
X10871200Y-8420000D01*
X10816200Y-8475000D01*
X10871200Y-8530000D01*
X10871200Y-8980000D02*
X10926200Y-8925000D01*
X10871200Y-8870000D01*
X10816200Y-8925000D01*
X10871200Y-8980000D01*
D11*
X9209724Y-11767524D02*
X9209724Y-11567524D01*
X9209724Y-11567524D02*
X9257343Y-11567524D01*
X9257343Y-11567524D02*
X9285915Y-11577048D01*
X9285915Y-11577048D02*
X9304962Y-11596095D01*
X9304962Y-11596095D02*
X9314486Y-11615143D01*
X9314486Y-11615143D02*
X9324010Y-11653238D01*
X9324010Y-11653238D02*
X9324010Y-11681809D01*
X9324010Y-11681809D02*
X9314486Y-11719905D01*
X9314486Y-11719905D02*
X9304962Y-11738952D01*
X9304962Y-11738952D02*
X9285915Y-11758000D01*
X9285915Y-11758000D02*
X9257343Y-11767524D01*
X9257343Y-11767524D02*
X9209724Y-11767524D01*
X9409724Y-11767524D02*
X9409724Y-11634190D01*
X9409724Y-11672286D02*
X9419248Y-11653238D01*
X9419248Y-11653238D02*
X9428772Y-11643714D01*
X9428772Y-11643714D02*
X9447819Y-11634190D01*
X9447819Y-11634190D02*
X9466867Y-11634190D01*
X9533534Y-11767524D02*
X9533534Y-11634190D01*
X9533534Y-11567524D02*
X9524010Y-11577048D01*
X9524010Y-11577048D02*
X9533534Y-11586571D01*
X9533534Y-11586571D02*
X9543057Y-11577048D01*
X9543057Y-11577048D02*
X9533534Y-11567524D01*
X9533534Y-11567524D02*
X9533534Y-11586571D01*
X9657343Y-11767524D02*
X9638295Y-11758000D01*
X9638295Y-11758000D02*
X9628772Y-11738952D01*
X9628772Y-11738952D02*
X9628772Y-11567524D01*
X9762105Y-11767524D02*
X9743057Y-11758000D01*
X9743057Y-11758000D02*
X9733534Y-11738952D01*
X9733534Y-11738952D02*
X9733534Y-11567524D01*
X9990676Y-11767524D02*
X9990676Y-11567524D01*
X9990676Y-11567524D02*
X10057343Y-11710381D01*
X10057343Y-11710381D02*
X10124010Y-11567524D01*
X10124010Y-11567524D02*
X10124010Y-11767524D01*
X10304962Y-11767524D02*
X10304962Y-11662762D01*
X10304962Y-11662762D02*
X10295438Y-11643714D01*
X10295438Y-11643714D02*
X10276391Y-11634190D01*
X10276391Y-11634190D02*
X10238295Y-11634190D01*
X10238295Y-11634190D02*
X10219248Y-11643714D01*
X10304962Y-11758000D02*
X10285915Y-11767524D01*
X10285915Y-11767524D02*
X10238295Y-11767524D01*
X10238295Y-11767524D02*
X10219248Y-11758000D01*
X10219248Y-11758000D02*
X10209724Y-11738952D01*
X10209724Y-11738952D02*
X10209724Y-11719905D01*
X10209724Y-11719905D02*
X10219248Y-11700857D01*
X10219248Y-11700857D02*
X10238295Y-11691333D01*
X10238295Y-11691333D02*
X10285915Y-11691333D01*
X10285915Y-11691333D02*
X10304962Y-11681809D01*
X10400200Y-11634190D02*
X10400200Y-11834190D01*
X10400200Y-11643714D02*
X10419248Y-11634190D01*
X10419248Y-11634190D02*
X10457343Y-11634190D01*
X10457343Y-11634190D02*
X10476391Y-11643714D01*
X10476391Y-11643714D02*
X10485915Y-11653238D01*
X10485915Y-11653238D02*
X10495438Y-11672286D01*
X10495438Y-11672286D02*
X10495438Y-11729428D01*
X10495438Y-11729428D02*
X10485915Y-11748476D01*
X10485915Y-11748476D02*
X10476391Y-11758000D01*
X10476391Y-11758000D02*
X10457343Y-11767524D01*
X10457343Y-11767524D02*
X10419248Y-11767524D01*
X10419248Y-11767524D02*
X10400200Y-11758000D01*
X10581153Y-11748476D02*
X10590676Y-11758000D01*
X10590676Y-11758000D02*
X10581153Y-11767524D01*
X10581153Y-11767524D02*
X10571629Y-11758000D01*
X10571629Y-11758000D02*
X10581153Y-11748476D01*
X10581153Y-11748476D02*
X10581153Y-11767524D01*
X10581153Y-11643714D02*
X10590676Y-11653238D01*
X10590676Y-11653238D02*
X10581153Y-11662762D01*
X10581153Y-11662762D02*
X10571629Y-11653238D01*
X10571629Y-11653238D02*
X10581153Y-11643714D01*
X10581153Y-11643714D02*
X10581153Y-11662762D01*
D12*
X8922105Y-12075000D02*
X8962105Y-12115000D01*
X8962105Y-12075000D02*
X8922105Y-12115000D01*
D11*
X9247819Y-11987524D02*
X9266867Y-11987524D01*
X9266867Y-11987524D02*
X9285915Y-11997048D01*
X9285915Y-11997048D02*
X9295438Y-12006571D01*
X9295438Y-12006571D02*
X9304962Y-12025619D01*
X9304962Y-12025619D02*
X9314486Y-12063714D01*
X9314486Y-12063714D02*
X9314486Y-12111333D01*
X9314486Y-12111333D02*
X9304962Y-12149428D01*
X9304962Y-12149428D02*
X9295438Y-12168476D01*
X9295438Y-12168476D02*
X9285915Y-12178000D01*
X9285915Y-12178000D02*
X9266867Y-12187524D01*
X9266867Y-12187524D02*
X9247819Y-12187524D01*
X9247819Y-12187524D02*
X9228772Y-12178000D01*
X9228772Y-12178000D02*
X9219248Y-12168476D01*
X9219248Y-12168476D02*
X9209724Y-12149428D01*
X9209724Y-12149428D02*
X9200200Y-12111333D01*
X9200200Y-12111333D02*
X9200200Y-12063714D01*
X9200200Y-12063714D02*
X9209724Y-12025619D01*
X9209724Y-12025619D02*
X9219248Y-12006571D01*
X9219248Y-12006571D02*
X9228772Y-11997048D01*
X9228772Y-11997048D02*
X9247819Y-11987524D01*
X9400200Y-12168476D02*
X9409724Y-12178000D01*
X9409724Y-12178000D02*
X9400200Y-12187524D01*
X9400200Y-12187524D02*
X9390676Y-12178000D01*
X9390676Y-12178000D02*
X9400200Y-12168476D01*
X9400200Y-12168476D02*
X9400200Y-12187524D01*
X9581153Y-12054190D02*
X9581153Y-12187524D01*
X9533534Y-11978000D02*
X9485915Y-12120857D01*
X9485915Y-12120857D02*
X9609724Y-12120857D01*
X9724010Y-11987524D02*
X9743057Y-11987524D01*
X9743057Y-11987524D02*
X9762105Y-11997048D01*
X9762105Y-11997048D02*
X9771629Y-12006571D01*
X9771629Y-12006571D02*
X9781153Y-12025619D01*
X9781153Y-12025619D02*
X9790676Y-12063714D01*
X9790676Y-12063714D02*
X9790676Y-12111333D01*
X9790676Y-12111333D02*
X9781153Y-12149428D01*
X9781153Y-12149428D02*
X9771629Y-12168476D01*
X9771629Y-12168476D02*
X9762105Y-12178000D01*
X9762105Y-12178000D02*
X9743057Y-12187524D01*
X9743057Y-12187524D02*
X9724010Y-12187524D01*
X9724010Y-12187524D02*
X9704962Y-12178000D01*
X9704962Y-12178000D02*
X9695438Y-12168476D01*
X9695438Y-12168476D02*
X9685915Y-12149428D01*
X9685915Y-12149428D02*
X9676391Y-12111333D01*
X9676391Y-12111333D02*
X9676391Y-12063714D01*
X9676391Y-12063714D02*
X9685915Y-12025619D01*
X9685915Y-12025619D02*
X9695438Y-12006571D01*
X9695438Y-12006571D02*
X9704962Y-11997048D01*
X9704962Y-11997048D02*
X9724010Y-11987524D01*
X9914486Y-11987524D02*
X9933534Y-11987524D01*
X9933534Y-11987524D02*
X9952581Y-11997048D01*
X9952581Y-11997048D02*
X9962105Y-12006571D01*
X9962105Y-12006571D02*
X9971629Y-12025619D01*
X9971629Y-12025619D02*
X9981153Y-12063714D01*
X9981153Y-12063714D02*
X9981153Y-12111333D01*
X9981153Y-12111333D02*
X9971629Y-12149428D01*
X9971629Y-12149428D02*
X9962105Y-12168476D01*
X9962105Y-12168476D02*
X9952581Y-12178000D01*
X9952581Y-12178000D02*
X9933534Y-12187524D01*
X9933534Y-12187524D02*
X9914486Y-12187524D01*
X9914486Y-12187524D02*
X9895438Y-12178000D01*
X9895438Y-12178000D02*
X9885915Y-12168476D01*
X9885915Y-12168476D02*
X9876391Y-12149428D01*
X9876391Y-12149428D02*
X9866867Y-12111333D01*
X9866867Y-12111333D02*
X9866867Y-12063714D01*
X9866867Y-12063714D02*
X9876391Y-12025619D01*
X9876391Y-12025619D02*
X9885915Y-12006571D01*
X9885915Y-12006571D02*
X9895438Y-11997048D01*
X9895438Y-11997048D02*
X9914486Y-11987524D01*
X10066867Y-12187524D02*
X10066867Y-12054190D01*
X10066867Y-12073238D02*
X10076391Y-12063714D01*
X10076391Y-12063714D02*
X10095438Y-12054190D01*
X10095438Y-12054190D02*
X10124010Y-12054190D01*
X10124010Y-12054190D02*
X10143057Y-12063714D01*
X10143057Y-12063714D02*
X10152581Y-12082762D01*
X10152581Y-12082762D02*
X10152581Y-12187524D01*
X10152581Y-12082762D02*
X10162105Y-12063714D01*
X10162105Y-12063714D02*
X10181153Y-12054190D01*
X10181153Y-12054190D02*
X10209724Y-12054190D01*
X10209724Y-12054190D02*
X10228772Y-12063714D01*
X10228772Y-12063714D02*
X10238296Y-12082762D01*
X10238296Y-12082762D02*
X10238296Y-12187524D01*
X10333534Y-12187524D02*
X10333534Y-12054190D01*
X10333534Y-12073238D02*
X10343057Y-12063714D01*
X10343057Y-12063714D02*
X10362105Y-12054190D01*
X10362105Y-12054190D02*
X10390677Y-12054190D01*
X10390677Y-12054190D02*
X10409724Y-12063714D01*
X10409724Y-12063714D02*
X10419248Y-12082762D01*
X10419248Y-12082762D02*
X10419248Y-12187524D01*
X10419248Y-12082762D02*
X10428772Y-12063714D01*
X10428772Y-12063714D02*
X10447819Y-12054190D01*
X10447819Y-12054190D02*
X10476391Y-12054190D01*
X10476391Y-12054190D02*
X10495438Y-12063714D01*
X10495438Y-12063714D02*
X10504962Y-12082762D01*
X10504962Y-12082762D02*
X10504962Y-12187524D01*
X10895438Y-11978000D02*
X10724010Y-12235143D01*
X11152581Y-11987524D02*
X11171629Y-11987524D01*
X11171629Y-11987524D02*
X11190677Y-11997048D01*
X11190677Y-11997048D02*
X11200200Y-12006571D01*
X11200200Y-12006571D02*
X11209724Y-12025619D01*
X11209724Y-12025619D02*
X11219248Y-12063714D01*
X11219248Y-12063714D02*
X11219248Y-12111333D01*
X11219248Y-12111333D02*
X11209724Y-12149428D01*
X11209724Y-12149428D02*
X11200200Y-12168476D01*
X11200200Y-12168476D02*
X11190677Y-12178000D01*
X11190677Y-12178000D02*
X11171629Y-12187524D01*
X11171629Y-12187524D02*
X11152581Y-12187524D01*
X11152581Y-12187524D02*
X11133534Y-12178000D01*
X11133534Y-12178000D02*
X11124010Y-12168476D01*
X11124010Y-12168476D02*
X11114486Y-12149428D01*
X11114486Y-12149428D02*
X11104962Y-12111333D01*
X11104962Y-12111333D02*
X11104962Y-12063714D01*
X11104962Y-12063714D02*
X11114486Y-12025619D01*
X11114486Y-12025619D02*
X11124010Y-12006571D01*
X11124010Y-12006571D02*
X11133534Y-11997048D01*
X11133534Y-11997048D02*
X11152581Y-11987524D01*
X11304962Y-12168476D02*
X11314486Y-12178000D01*
X11314486Y-12178000D02*
X11304962Y-12187524D01*
X11304962Y-12187524D02*
X11295438Y-12178000D01*
X11295438Y-12178000D02*
X11304962Y-12168476D01*
X11304962Y-12168476D02*
X11304962Y-12187524D01*
X11438296Y-11987524D02*
X11457343Y-11987524D01*
X11457343Y-11987524D02*
X11476391Y-11997048D01*
X11476391Y-11997048D02*
X11485915Y-12006571D01*
X11485915Y-12006571D02*
X11495438Y-12025619D01*
X11495438Y-12025619D02*
X11504962Y-12063714D01*
X11504962Y-12063714D02*
X11504962Y-12111333D01*
X11504962Y-12111333D02*
X11495438Y-12149428D01*
X11495438Y-12149428D02*
X11485915Y-12168476D01*
X11485915Y-12168476D02*
X11476391Y-12178000D01*
X11476391Y-12178000D02*
X11457343Y-12187524D01*
X11457343Y-12187524D02*
X11438296Y-12187524D01*
X11438296Y-12187524D02*
X11419248Y-12178000D01*
X11419248Y-12178000D02*
X11409724Y-12168476D01*
X11409724Y-12168476D02*
X11400200Y-12149428D01*
X11400200Y-12149428D02*
X11390677Y-12111333D01*
X11390677Y-12111333D02*
X11390677Y-12063714D01*
X11390677Y-12063714D02*
X11400200Y-12025619D01*
X11400200Y-12025619D02*
X11409724Y-12006571D01*
X11409724Y-12006571D02*
X11419248Y-11997048D01*
X11419248Y-11997048D02*
X11438296Y-11987524D01*
X11695438Y-12187524D02*
X11581153Y-12187524D01*
X11638296Y-12187524D02*
X11638296Y-11987524D01*
X11638296Y-11987524D02*
X11619248Y-12016095D01*
X11619248Y-12016095D02*
X11600200Y-12035143D01*
X11600200Y-12035143D02*
X11581153Y-12044667D01*
X11876391Y-11987524D02*
X11781153Y-11987524D01*
X11781153Y-11987524D02*
X11771629Y-12082762D01*
X11771629Y-12082762D02*
X11781153Y-12073238D01*
X11781153Y-12073238D02*
X11800200Y-12063714D01*
X11800200Y-12063714D02*
X11847819Y-12063714D01*
X11847819Y-12063714D02*
X11866867Y-12073238D01*
X11866867Y-12073238D02*
X11876391Y-12082762D01*
X11876391Y-12082762D02*
X11885915Y-12101809D01*
X11885915Y-12101809D02*
X11885915Y-12149428D01*
X11885915Y-12149428D02*
X11876391Y-12168476D01*
X11876391Y-12168476D02*
X11866867Y-12178000D01*
X11866867Y-12178000D02*
X11847819Y-12187524D01*
X11847819Y-12187524D02*
X11800200Y-12187524D01*
X11800200Y-12187524D02*
X11781153Y-12178000D01*
X11781153Y-12178000D02*
X11771629Y-12168476D01*
X11952581Y-11987524D02*
X12085915Y-11987524D01*
X12085915Y-11987524D02*
X12000200Y-12187524D01*
X12152581Y-11987524D02*
X12152581Y-12025619D01*
X12228772Y-11987524D02*
X12228772Y-12025619D01*
X12524010Y-12263714D02*
X12514486Y-12254190D01*
X12514486Y-12254190D02*
X12495439Y-12225619D01*
X12495439Y-12225619D02*
X12485915Y-12206571D01*
X12485915Y-12206571D02*
X12476391Y-12178000D01*
X12476391Y-12178000D02*
X12466867Y-12130381D01*
X12466867Y-12130381D02*
X12466867Y-12092286D01*
X12466867Y-12092286D02*
X12476391Y-12044667D01*
X12476391Y-12044667D02*
X12485915Y-12016095D01*
X12485915Y-12016095D02*
X12495439Y-11997048D01*
X12495439Y-11997048D02*
X12514486Y-11968476D01*
X12514486Y-11968476D02*
X12524010Y-11958952D01*
X12628772Y-12073238D02*
X12609724Y-12063714D01*
X12609724Y-12063714D02*
X12600200Y-12054190D01*
X12600200Y-12054190D02*
X12590677Y-12035143D01*
X12590677Y-12035143D02*
X12590677Y-12025619D01*
X12590677Y-12025619D02*
X12600200Y-12006571D01*
X12600200Y-12006571D02*
X12609724Y-11997048D01*
X12609724Y-11997048D02*
X12628772Y-11987524D01*
X12628772Y-11987524D02*
X12666867Y-11987524D01*
X12666867Y-11987524D02*
X12685915Y-11997048D01*
X12685915Y-11997048D02*
X12695439Y-12006571D01*
X12695439Y-12006571D02*
X12704962Y-12025619D01*
X12704962Y-12025619D02*
X12704962Y-12035143D01*
X12704962Y-12035143D02*
X12695439Y-12054190D01*
X12695439Y-12054190D02*
X12685915Y-12063714D01*
X12685915Y-12063714D02*
X12666867Y-12073238D01*
X12666867Y-12073238D02*
X12628772Y-12073238D01*
X12628772Y-12073238D02*
X12609724Y-12082762D01*
X12609724Y-12082762D02*
X12600200Y-12092286D01*
X12600200Y-12092286D02*
X12590677Y-12111333D01*
X12590677Y-12111333D02*
X12590677Y-12149428D01*
X12590677Y-12149428D02*
X12600200Y-12168476D01*
X12600200Y-12168476D02*
X12609724Y-12178000D01*
X12609724Y-12178000D02*
X12628772Y-12187524D01*
X12628772Y-12187524D02*
X12666867Y-12187524D01*
X12666867Y-12187524D02*
X12685915Y-12178000D01*
X12685915Y-12178000D02*
X12695439Y-12168476D01*
X12695439Y-12168476D02*
X12704962Y-12149428D01*
X12704962Y-12149428D02*
X12704962Y-12111333D01*
X12704962Y-12111333D02*
X12695439Y-12092286D01*
X12695439Y-12092286D02*
X12685915Y-12082762D01*
X12685915Y-12082762D02*
X12666867Y-12073238D01*
X12943058Y-12187524D02*
X12943058Y-11987524D01*
X13028772Y-12187524D02*
X13028772Y-12082762D01*
X13028772Y-12082762D02*
X13019248Y-12063714D01*
X13019248Y-12063714D02*
X13000201Y-12054190D01*
X13000201Y-12054190D02*
X12971629Y-12054190D01*
X12971629Y-12054190D02*
X12952581Y-12063714D01*
X12952581Y-12063714D02*
X12943058Y-12073238D01*
X13152581Y-12187524D02*
X13133534Y-12178000D01*
X13133534Y-12178000D02*
X13124010Y-12168476D01*
X13124010Y-12168476D02*
X13114486Y-12149428D01*
X13114486Y-12149428D02*
X13114486Y-12092286D01*
X13114486Y-12092286D02*
X13124010Y-12073238D01*
X13124010Y-12073238D02*
X13133534Y-12063714D01*
X13133534Y-12063714D02*
X13152581Y-12054190D01*
X13152581Y-12054190D02*
X13181153Y-12054190D01*
X13181153Y-12054190D02*
X13200201Y-12063714D01*
X13200201Y-12063714D02*
X13209724Y-12073238D01*
X13209724Y-12073238D02*
X13219248Y-12092286D01*
X13219248Y-12092286D02*
X13219248Y-12149428D01*
X13219248Y-12149428D02*
X13209724Y-12168476D01*
X13209724Y-12168476D02*
X13200201Y-12178000D01*
X13200201Y-12178000D02*
X13181153Y-12187524D01*
X13181153Y-12187524D02*
X13152581Y-12187524D01*
X13333534Y-12187524D02*
X13314486Y-12178000D01*
X13314486Y-12178000D02*
X13304962Y-12158952D01*
X13304962Y-12158952D02*
X13304962Y-11987524D01*
X13485915Y-12178000D02*
X13466867Y-12187524D01*
X13466867Y-12187524D02*
X13428772Y-12187524D01*
X13428772Y-12187524D02*
X13409724Y-12178000D01*
X13409724Y-12178000D02*
X13400201Y-12158952D01*
X13400201Y-12158952D02*
X13400201Y-12082762D01*
X13400201Y-12082762D02*
X13409724Y-12063714D01*
X13409724Y-12063714D02*
X13428772Y-12054190D01*
X13428772Y-12054190D02*
X13466867Y-12054190D01*
X13466867Y-12054190D02*
X13485915Y-12063714D01*
X13485915Y-12063714D02*
X13495439Y-12082762D01*
X13495439Y-12082762D02*
X13495439Y-12101809D01*
X13495439Y-12101809D02*
X13400201Y-12120857D01*
X13571629Y-12178000D02*
X13590677Y-12187524D01*
X13590677Y-12187524D02*
X13628772Y-12187524D01*
X13628772Y-12187524D02*
X13647820Y-12178000D01*
X13647820Y-12178000D02*
X13657343Y-12158952D01*
X13657343Y-12158952D02*
X13657343Y-12149428D01*
X13657343Y-12149428D02*
X13647820Y-12130381D01*
X13647820Y-12130381D02*
X13628772Y-12120857D01*
X13628772Y-12120857D02*
X13600201Y-12120857D01*
X13600201Y-12120857D02*
X13581153Y-12111333D01*
X13581153Y-12111333D02*
X13571629Y-12092286D01*
X13571629Y-12092286D02*
X13571629Y-12082762D01*
X13571629Y-12082762D02*
X13581153Y-12063714D01*
X13581153Y-12063714D02*
X13600201Y-12054190D01*
X13600201Y-12054190D02*
X13628772Y-12054190D01*
X13628772Y-12054190D02*
X13647820Y-12063714D01*
X13724010Y-12263714D02*
X13733534Y-12254190D01*
X13733534Y-12254190D02*
X13752582Y-12225619D01*
X13752582Y-12225619D02*
X13762105Y-12206571D01*
X13762105Y-12206571D02*
X13771629Y-12178000D01*
X13771629Y-12178000D02*
X13781153Y-12130381D01*
X13781153Y-12130381D02*
X13781153Y-12092286D01*
X13781153Y-12092286D02*
X13771629Y-12044667D01*
X13771629Y-12044667D02*
X13762105Y-12016095D01*
X13762105Y-12016095D02*
X13752582Y-11997048D01*
X13752582Y-11997048D02*
X13733534Y-11968476D01*
X13733534Y-11968476D02*
X13724010Y-11958952D01*
D13*
X8962105Y-12359000D02*
G75*
G03*
X8962105Y-12359000I-35000J0D01*
G01*
D11*
X9247819Y-12251524D02*
X9266867Y-12251524D01*
X9266867Y-12251524D02*
X9285915Y-12261048D01*
X9285915Y-12261048D02*
X9295438Y-12270571D01*
X9295438Y-12270571D02*
X9304962Y-12289619D01*
X9304962Y-12289619D02*
X9314486Y-12327714D01*
X9314486Y-12327714D02*
X9314486Y-12375333D01*
X9314486Y-12375333D02*
X9304962Y-12413428D01*
X9304962Y-12413428D02*
X9295438Y-12432476D01*
X9295438Y-12432476D02*
X9285915Y-12442000D01*
X9285915Y-12442000D02*
X9266867Y-12451524D01*
X9266867Y-12451524D02*
X9247819Y-12451524D01*
X9247819Y-12451524D02*
X9228772Y-12442000D01*
X9228772Y-12442000D02*
X9219248Y-12432476D01*
X9219248Y-12432476D02*
X9209724Y-12413428D01*
X9209724Y-12413428D02*
X9200200Y-12375333D01*
X9200200Y-12375333D02*
X9200200Y-12327714D01*
X9200200Y-12327714D02*
X9209724Y-12289619D01*
X9209724Y-12289619D02*
X9219248Y-12270571D01*
X9219248Y-12270571D02*
X9228772Y-12261048D01*
X9228772Y-12261048D02*
X9247819Y-12251524D01*
X9400200Y-12432476D02*
X9409724Y-12442000D01*
X9409724Y-12442000D02*
X9400200Y-12451524D01*
X9400200Y-12451524D02*
X9390676Y-12442000D01*
X9390676Y-12442000D02*
X9400200Y-12432476D01*
X9400200Y-12432476D02*
X9400200Y-12451524D01*
X9476391Y-12251524D02*
X9609724Y-12251524D01*
X9609724Y-12251524D02*
X9524010Y-12451524D01*
X9724010Y-12251524D02*
X9743057Y-12251524D01*
X9743057Y-12251524D02*
X9762105Y-12261048D01*
X9762105Y-12261048D02*
X9771629Y-12270571D01*
X9771629Y-12270571D02*
X9781153Y-12289619D01*
X9781153Y-12289619D02*
X9790676Y-12327714D01*
X9790676Y-12327714D02*
X9790676Y-12375333D01*
X9790676Y-12375333D02*
X9781153Y-12413428D01*
X9781153Y-12413428D02*
X9771629Y-12432476D01*
X9771629Y-12432476D02*
X9762105Y-12442000D01*
X9762105Y-12442000D02*
X9743057Y-12451524D01*
X9743057Y-12451524D02*
X9724010Y-12451524D01*
X9724010Y-12451524D02*
X9704962Y-12442000D01*
X9704962Y-12442000D02*
X9695438Y-12432476D01*
X9695438Y-12432476D02*
X9685915Y-12413428D01*
X9685915Y-12413428D02*
X9676391Y-12375333D01*
X9676391Y-12375333D02*
X9676391Y-12327714D01*
X9676391Y-12327714D02*
X9685915Y-12289619D01*
X9685915Y-12289619D02*
X9695438Y-12270571D01*
X9695438Y-12270571D02*
X9704962Y-12261048D01*
X9704962Y-12261048D02*
X9724010Y-12251524D01*
X9914486Y-12251524D02*
X9933534Y-12251524D01*
X9933534Y-12251524D02*
X9952581Y-12261048D01*
X9952581Y-12261048D02*
X9962105Y-12270571D01*
X9962105Y-12270571D02*
X9971629Y-12289619D01*
X9971629Y-12289619D02*
X9981153Y-12327714D01*
X9981153Y-12327714D02*
X9981153Y-12375333D01*
X9981153Y-12375333D02*
X9971629Y-12413428D01*
X9971629Y-12413428D02*
X9962105Y-12432476D01*
X9962105Y-12432476D02*
X9952581Y-12442000D01*
X9952581Y-12442000D02*
X9933534Y-12451524D01*
X9933534Y-12451524D02*
X9914486Y-12451524D01*
X9914486Y-12451524D02*
X9895438Y-12442000D01*
X9895438Y-12442000D02*
X9885915Y-12432476D01*
X9885915Y-12432476D02*
X9876391Y-12413428D01*
X9876391Y-12413428D02*
X9866867Y-12375333D01*
X9866867Y-12375333D02*
X9866867Y-12327714D01*
X9866867Y-12327714D02*
X9876391Y-12289619D01*
X9876391Y-12289619D02*
X9885915Y-12270571D01*
X9885915Y-12270571D02*
X9895438Y-12261048D01*
X9895438Y-12261048D02*
X9914486Y-12251524D01*
X10066867Y-12451524D02*
X10066867Y-12318190D01*
X10066867Y-12337238D02*
X10076391Y-12327714D01*
X10076391Y-12327714D02*
X10095438Y-12318190D01*
X10095438Y-12318190D02*
X10124010Y-12318190D01*
X10124010Y-12318190D02*
X10143057Y-12327714D01*
X10143057Y-12327714D02*
X10152581Y-12346762D01*
X10152581Y-12346762D02*
X10152581Y-12451524D01*
X10152581Y-12346762D02*
X10162105Y-12327714D01*
X10162105Y-12327714D02*
X10181153Y-12318190D01*
X10181153Y-12318190D02*
X10209724Y-12318190D01*
X10209724Y-12318190D02*
X10228772Y-12327714D01*
X10228772Y-12327714D02*
X10238296Y-12346762D01*
X10238296Y-12346762D02*
X10238296Y-12451524D01*
X10333534Y-12451524D02*
X10333534Y-12318190D01*
X10333534Y-12337238D02*
X10343057Y-12327714D01*
X10343057Y-12327714D02*
X10362105Y-12318190D01*
X10362105Y-12318190D02*
X10390677Y-12318190D01*
X10390677Y-12318190D02*
X10409724Y-12327714D01*
X10409724Y-12327714D02*
X10419248Y-12346762D01*
X10419248Y-12346762D02*
X10419248Y-12451524D01*
X10419248Y-12346762D02*
X10428772Y-12327714D01*
X10428772Y-12327714D02*
X10447819Y-12318190D01*
X10447819Y-12318190D02*
X10476391Y-12318190D01*
X10476391Y-12318190D02*
X10495438Y-12327714D01*
X10495438Y-12327714D02*
X10504962Y-12346762D01*
X10504962Y-12346762D02*
X10504962Y-12451524D01*
X10895438Y-12242000D02*
X10724010Y-12499143D01*
X11152581Y-12251524D02*
X11171629Y-12251524D01*
X11171629Y-12251524D02*
X11190677Y-12261048D01*
X11190677Y-12261048D02*
X11200200Y-12270571D01*
X11200200Y-12270571D02*
X11209724Y-12289619D01*
X11209724Y-12289619D02*
X11219248Y-12327714D01*
X11219248Y-12327714D02*
X11219248Y-12375333D01*
X11219248Y-12375333D02*
X11209724Y-12413428D01*
X11209724Y-12413428D02*
X11200200Y-12432476D01*
X11200200Y-12432476D02*
X11190677Y-12442000D01*
X11190677Y-12442000D02*
X11171629Y-12451524D01*
X11171629Y-12451524D02*
X11152581Y-12451524D01*
X11152581Y-12451524D02*
X11133534Y-12442000D01*
X11133534Y-12442000D02*
X11124010Y-12432476D01*
X11124010Y-12432476D02*
X11114486Y-12413428D01*
X11114486Y-12413428D02*
X11104962Y-12375333D01*
X11104962Y-12375333D02*
X11104962Y-12327714D01*
X11104962Y-12327714D02*
X11114486Y-12289619D01*
X11114486Y-12289619D02*
X11124010Y-12270571D01*
X11124010Y-12270571D02*
X11133534Y-12261048D01*
X11133534Y-12261048D02*
X11152581Y-12251524D01*
X11304962Y-12432476D02*
X11314486Y-12442000D01*
X11314486Y-12442000D02*
X11304962Y-12451524D01*
X11304962Y-12451524D02*
X11295438Y-12442000D01*
X11295438Y-12442000D02*
X11304962Y-12432476D01*
X11304962Y-12432476D02*
X11304962Y-12451524D01*
X11438296Y-12251524D02*
X11457343Y-12251524D01*
X11457343Y-12251524D02*
X11476391Y-12261048D01*
X11476391Y-12261048D02*
X11485915Y-12270571D01*
X11485915Y-12270571D02*
X11495438Y-12289619D01*
X11495438Y-12289619D02*
X11504962Y-12327714D01*
X11504962Y-12327714D02*
X11504962Y-12375333D01*
X11504962Y-12375333D02*
X11495438Y-12413428D01*
X11495438Y-12413428D02*
X11485915Y-12432476D01*
X11485915Y-12432476D02*
X11476391Y-12442000D01*
X11476391Y-12442000D02*
X11457343Y-12451524D01*
X11457343Y-12451524D02*
X11438296Y-12451524D01*
X11438296Y-12451524D02*
X11419248Y-12442000D01*
X11419248Y-12442000D02*
X11409724Y-12432476D01*
X11409724Y-12432476D02*
X11400200Y-12413428D01*
X11400200Y-12413428D02*
X11390677Y-12375333D01*
X11390677Y-12375333D02*
X11390677Y-12327714D01*
X11390677Y-12327714D02*
X11400200Y-12289619D01*
X11400200Y-12289619D02*
X11409724Y-12270571D01*
X11409724Y-12270571D02*
X11419248Y-12261048D01*
X11419248Y-12261048D02*
X11438296Y-12251524D01*
X11581153Y-12270571D02*
X11590677Y-12261048D01*
X11590677Y-12261048D02*
X11609724Y-12251524D01*
X11609724Y-12251524D02*
X11657343Y-12251524D01*
X11657343Y-12251524D02*
X11676391Y-12261048D01*
X11676391Y-12261048D02*
X11685915Y-12270571D01*
X11685915Y-12270571D02*
X11695438Y-12289619D01*
X11695438Y-12289619D02*
X11695438Y-12308667D01*
X11695438Y-12308667D02*
X11685915Y-12337238D01*
X11685915Y-12337238D02*
X11571629Y-12451524D01*
X11571629Y-12451524D02*
X11695438Y-12451524D01*
X11762105Y-12251524D02*
X11895438Y-12251524D01*
X11895438Y-12251524D02*
X11809724Y-12451524D01*
X12057343Y-12251524D02*
X12019248Y-12251524D01*
X12019248Y-12251524D02*
X12000200Y-12261048D01*
X12000200Y-12261048D02*
X11990677Y-12270571D01*
X11990677Y-12270571D02*
X11971629Y-12299143D01*
X11971629Y-12299143D02*
X11962105Y-12337238D01*
X11962105Y-12337238D02*
X11962105Y-12413428D01*
X11962105Y-12413428D02*
X11971629Y-12432476D01*
X11971629Y-12432476D02*
X11981153Y-12442000D01*
X11981153Y-12442000D02*
X12000200Y-12451524D01*
X12000200Y-12451524D02*
X12038296Y-12451524D01*
X12038296Y-12451524D02*
X12057343Y-12442000D01*
X12057343Y-12442000D02*
X12066867Y-12432476D01*
X12066867Y-12432476D02*
X12076391Y-12413428D01*
X12076391Y-12413428D02*
X12076391Y-12365809D01*
X12076391Y-12365809D02*
X12066867Y-12346762D01*
X12066867Y-12346762D02*
X12057343Y-12337238D01*
X12057343Y-12337238D02*
X12038296Y-12327714D01*
X12038296Y-12327714D02*
X12000200Y-12327714D01*
X12000200Y-12327714D02*
X11981153Y-12337238D01*
X11981153Y-12337238D02*
X11971629Y-12346762D01*
X11971629Y-12346762D02*
X11962105Y-12365809D01*
X12152581Y-12251524D02*
X12152581Y-12289619D01*
X12228772Y-12251524D02*
X12228772Y-12289619D01*
X12524010Y-12527714D02*
X12514486Y-12518190D01*
X12514486Y-12518190D02*
X12495439Y-12489619D01*
X12495439Y-12489619D02*
X12485915Y-12470571D01*
X12485915Y-12470571D02*
X12476391Y-12442000D01*
X12476391Y-12442000D02*
X12466867Y-12394381D01*
X12466867Y-12394381D02*
X12466867Y-12356286D01*
X12466867Y-12356286D02*
X12476391Y-12308667D01*
X12476391Y-12308667D02*
X12485915Y-12280095D01*
X12485915Y-12280095D02*
X12495439Y-12261048D01*
X12495439Y-12261048D02*
X12514486Y-12232476D01*
X12514486Y-12232476D02*
X12524010Y-12222952D01*
X12590677Y-12270571D02*
X12600200Y-12261048D01*
X12600200Y-12261048D02*
X12619248Y-12251524D01*
X12619248Y-12251524D02*
X12666867Y-12251524D01*
X12666867Y-12251524D02*
X12685915Y-12261048D01*
X12685915Y-12261048D02*
X12695439Y-12270571D01*
X12695439Y-12270571D02*
X12704962Y-12289619D01*
X12704962Y-12289619D02*
X12704962Y-12308667D01*
X12704962Y-12308667D02*
X12695439Y-12337238D01*
X12695439Y-12337238D02*
X12581153Y-12451524D01*
X12581153Y-12451524D02*
X12704962Y-12451524D01*
X12943058Y-12451524D02*
X12943058Y-12251524D01*
X13028772Y-12451524D02*
X13028772Y-12346762D01*
X13028772Y-12346762D02*
X13019248Y-12327714D01*
X13019248Y-12327714D02*
X13000201Y-12318190D01*
X13000201Y-12318190D02*
X12971629Y-12318190D01*
X12971629Y-12318190D02*
X12952581Y-12327714D01*
X12952581Y-12327714D02*
X12943058Y-12337238D01*
X13152581Y-12451524D02*
X13133534Y-12442000D01*
X13133534Y-12442000D02*
X13124010Y-12432476D01*
X13124010Y-12432476D02*
X13114486Y-12413428D01*
X13114486Y-12413428D02*
X13114486Y-12356286D01*
X13114486Y-12356286D02*
X13124010Y-12337238D01*
X13124010Y-12337238D02*
X13133534Y-12327714D01*
X13133534Y-12327714D02*
X13152581Y-12318190D01*
X13152581Y-12318190D02*
X13181153Y-12318190D01*
X13181153Y-12318190D02*
X13200201Y-12327714D01*
X13200201Y-12327714D02*
X13209724Y-12337238D01*
X13209724Y-12337238D02*
X13219248Y-12356286D01*
X13219248Y-12356286D02*
X13219248Y-12413428D01*
X13219248Y-12413428D02*
X13209724Y-12432476D01*
X13209724Y-12432476D02*
X13200201Y-12442000D01*
X13200201Y-12442000D02*
X13181153Y-12451524D01*
X13181153Y-12451524D02*
X13152581Y-12451524D01*
X13333534Y-12451524D02*
X13314486Y-12442000D01*
X13314486Y-12442000D02*
X13304962Y-12422952D01*
X13304962Y-12422952D02*
X13304962Y-12251524D01*
X13485915Y-12442000D02*
X13466867Y-12451524D01*
X13466867Y-12451524D02*
X13428772Y-12451524D01*
X13428772Y-12451524D02*
X13409724Y-12442000D01*
X13409724Y-12442000D02*
X13400201Y-12422952D01*
X13400201Y-12422952D02*
X13400201Y-12346762D01*
X13400201Y-12346762D02*
X13409724Y-12327714D01*
X13409724Y-12327714D02*
X13428772Y-12318190D01*
X13428772Y-12318190D02*
X13466867Y-12318190D01*
X13466867Y-12318190D02*
X13485915Y-12327714D01*
X13485915Y-12327714D02*
X13495439Y-12346762D01*
X13495439Y-12346762D02*
X13495439Y-12365809D01*
X13495439Y-12365809D02*
X13400201Y-12384857D01*
X13571629Y-12442000D02*
X13590677Y-12451524D01*
X13590677Y-12451524D02*
X13628772Y-12451524D01*
X13628772Y-12451524D02*
X13647820Y-12442000D01*
X13647820Y-12442000D02*
X13657343Y-12422952D01*
X13657343Y-12422952D02*
X13657343Y-12413428D01*
X13657343Y-12413428D02*
X13647820Y-12394381D01*
X13647820Y-12394381D02*
X13628772Y-12384857D01*
X13628772Y-12384857D02*
X13600201Y-12384857D01*
X13600201Y-12384857D02*
X13581153Y-12375333D01*
X13581153Y-12375333D02*
X13571629Y-12356286D01*
X13571629Y-12356286D02*
X13571629Y-12346762D01*
X13571629Y-12346762D02*
X13581153Y-12327714D01*
X13581153Y-12327714D02*
X13600201Y-12318190D01*
X13600201Y-12318190D02*
X13628772Y-12318190D01*
X13628772Y-12318190D02*
X13647820Y-12327714D01*
X13724010Y-12527714D02*
X13733534Y-12518190D01*
X13733534Y-12518190D02*
X13752582Y-12489619D01*
X13752582Y-12489619D02*
X13762105Y-12470571D01*
X13762105Y-12470571D02*
X13771629Y-12442000D01*
X13771629Y-12442000D02*
X13781153Y-12394381D01*
X13781153Y-12394381D02*
X13781153Y-12356286D01*
X13781153Y-12356286D02*
X13771629Y-12308667D01*
X13771629Y-12308667D02*
X13762105Y-12280095D01*
X13762105Y-12280095D02*
X13752582Y-12261048D01*
X13752582Y-12261048D02*
X13733534Y-12232476D01*
X13733534Y-12232476D02*
X13724010Y-12222952D01*
D14*
X8922105Y-12583000D02*
X8922105Y-12663000D01*
X8882105Y-12623000D02*
X8962105Y-12623000D01*
D11*
X9247819Y-12515524D02*
X9266867Y-12515524D01*
X9266867Y-12515524D02*
X9285915Y-12525048D01*
X9285915Y-12525048D02*
X9295438Y-12534571D01*
X9295438Y-12534571D02*
X9304962Y-12553619D01*
X9304962Y-12553619D02*
X9314486Y-12591714D01*
X9314486Y-12591714D02*
X9314486Y-12639333D01*
X9314486Y-12639333D02*
X9304962Y-12677428D01*
X9304962Y-12677428D02*
X9295438Y-12696476D01*
X9295438Y-12696476D02*
X9285915Y-12706000D01*
X9285915Y-12706000D02*
X9266867Y-12715524D01*
X9266867Y-12715524D02*
X9247819Y-12715524D01*
X9247819Y-12715524D02*
X9228772Y-12706000D01*
X9228772Y-12706000D02*
X9219248Y-12696476D01*
X9219248Y-12696476D02*
X9209724Y-12677428D01*
X9209724Y-12677428D02*
X9200200Y-12639333D01*
X9200200Y-12639333D02*
X9200200Y-12591714D01*
X9200200Y-12591714D02*
X9209724Y-12553619D01*
X9209724Y-12553619D02*
X9219248Y-12534571D01*
X9219248Y-12534571D02*
X9228772Y-12525048D01*
X9228772Y-12525048D02*
X9247819Y-12515524D01*
X9400200Y-12696476D02*
X9409724Y-12706000D01*
X9409724Y-12706000D02*
X9400200Y-12715524D01*
X9400200Y-12715524D02*
X9390676Y-12706000D01*
X9390676Y-12706000D02*
X9400200Y-12696476D01*
X9400200Y-12696476D02*
X9400200Y-12715524D01*
X9524010Y-12601238D02*
X9504962Y-12591714D01*
X9504962Y-12591714D02*
X9495438Y-12582190D01*
X9495438Y-12582190D02*
X9485915Y-12563143D01*
X9485915Y-12563143D02*
X9485915Y-12553619D01*
X9485915Y-12553619D02*
X9495438Y-12534571D01*
X9495438Y-12534571D02*
X9504962Y-12525048D01*
X9504962Y-12525048D02*
X9524010Y-12515524D01*
X9524010Y-12515524D02*
X9562105Y-12515524D01*
X9562105Y-12515524D02*
X9581153Y-12525048D01*
X9581153Y-12525048D02*
X9590676Y-12534571D01*
X9590676Y-12534571D02*
X9600200Y-12553619D01*
X9600200Y-12553619D02*
X9600200Y-12563143D01*
X9600200Y-12563143D02*
X9590676Y-12582190D01*
X9590676Y-12582190D02*
X9581153Y-12591714D01*
X9581153Y-12591714D02*
X9562105Y-12601238D01*
X9562105Y-12601238D02*
X9524010Y-12601238D01*
X9524010Y-12601238D02*
X9504962Y-12610762D01*
X9504962Y-12610762D02*
X9495438Y-12620286D01*
X9495438Y-12620286D02*
X9485915Y-12639333D01*
X9485915Y-12639333D02*
X9485915Y-12677428D01*
X9485915Y-12677428D02*
X9495438Y-12696476D01*
X9495438Y-12696476D02*
X9504962Y-12706000D01*
X9504962Y-12706000D02*
X9524010Y-12715524D01*
X9524010Y-12715524D02*
X9562105Y-12715524D01*
X9562105Y-12715524D02*
X9581153Y-12706000D01*
X9581153Y-12706000D02*
X9590676Y-12696476D01*
X9590676Y-12696476D02*
X9600200Y-12677428D01*
X9600200Y-12677428D02*
X9600200Y-12639333D01*
X9600200Y-12639333D02*
X9590676Y-12620286D01*
X9590676Y-12620286D02*
X9581153Y-12610762D01*
X9581153Y-12610762D02*
X9562105Y-12601238D01*
X9724010Y-12515524D02*
X9743057Y-12515524D01*
X9743057Y-12515524D02*
X9762105Y-12525048D01*
X9762105Y-12525048D02*
X9771629Y-12534571D01*
X9771629Y-12534571D02*
X9781153Y-12553619D01*
X9781153Y-12553619D02*
X9790676Y-12591714D01*
X9790676Y-12591714D02*
X9790676Y-12639333D01*
X9790676Y-12639333D02*
X9781153Y-12677428D01*
X9781153Y-12677428D02*
X9771629Y-12696476D01*
X9771629Y-12696476D02*
X9762105Y-12706000D01*
X9762105Y-12706000D02*
X9743057Y-12715524D01*
X9743057Y-12715524D02*
X9724010Y-12715524D01*
X9724010Y-12715524D02*
X9704962Y-12706000D01*
X9704962Y-12706000D02*
X9695438Y-12696476D01*
X9695438Y-12696476D02*
X9685915Y-12677428D01*
X9685915Y-12677428D02*
X9676391Y-12639333D01*
X9676391Y-12639333D02*
X9676391Y-12591714D01*
X9676391Y-12591714D02*
X9685915Y-12553619D01*
X9685915Y-12553619D02*
X9695438Y-12534571D01*
X9695438Y-12534571D02*
X9704962Y-12525048D01*
X9704962Y-12525048D02*
X9724010Y-12515524D01*
X9914486Y-12515524D02*
X9933534Y-12515524D01*
X9933534Y-12515524D02*
X9952581Y-12525048D01*
X9952581Y-12525048D02*
X9962105Y-12534571D01*
X9962105Y-12534571D02*
X9971629Y-12553619D01*
X9971629Y-12553619D02*
X9981153Y-12591714D01*
X9981153Y-12591714D02*
X9981153Y-12639333D01*
X9981153Y-12639333D02*
X9971629Y-12677428D01*
X9971629Y-12677428D02*
X9962105Y-12696476D01*
X9962105Y-12696476D02*
X9952581Y-12706000D01*
X9952581Y-12706000D02*
X9933534Y-12715524D01*
X9933534Y-12715524D02*
X9914486Y-12715524D01*
X9914486Y-12715524D02*
X9895438Y-12706000D01*
X9895438Y-12706000D02*
X9885915Y-12696476D01*
X9885915Y-12696476D02*
X9876391Y-12677428D01*
X9876391Y-12677428D02*
X9866867Y-12639333D01*
X9866867Y-12639333D02*
X9866867Y-12591714D01*
X9866867Y-12591714D02*
X9876391Y-12553619D01*
X9876391Y-12553619D02*
X9885915Y-12534571D01*
X9885915Y-12534571D02*
X9895438Y-12525048D01*
X9895438Y-12525048D02*
X9914486Y-12515524D01*
X10066867Y-12715524D02*
X10066867Y-12582190D01*
X10066867Y-12601238D02*
X10076391Y-12591714D01*
X10076391Y-12591714D02*
X10095438Y-12582190D01*
X10095438Y-12582190D02*
X10124010Y-12582190D01*
X10124010Y-12582190D02*
X10143057Y-12591714D01*
X10143057Y-12591714D02*
X10152581Y-12610762D01*
X10152581Y-12610762D02*
X10152581Y-12715524D01*
X10152581Y-12610762D02*
X10162105Y-12591714D01*
X10162105Y-12591714D02*
X10181153Y-12582190D01*
X10181153Y-12582190D02*
X10209724Y-12582190D01*
X10209724Y-12582190D02*
X10228772Y-12591714D01*
X10228772Y-12591714D02*
X10238296Y-12610762D01*
X10238296Y-12610762D02*
X10238296Y-12715524D01*
X10333534Y-12715524D02*
X10333534Y-12582190D01*
X10333534Y-12601238D02*
X10343057Y-12591714D01*
X10343057Y-12591714D02*
X10362105Y-12582190D01*
X10362105Y-12582190D02*
X10390677Y-12582190D01*
X10390677Y-12582190D02*
X10409724Y-12591714D01*
X10409724Y-12591714D02*
X10419248Y-12610762D01*
X10419248Y-12610762D02*
X10419248Y-12715524D01*
X10419248Y-12610762D02*
X10428772Y-12591714D01*
X10428772Y-12591714D02*
X10447819Y-12582190D01*
X10447819Y-12582190D02*
X10476391Y-12582190D01*
X10476391Y-12582190D02*
X10495438Y-12591714D01*
X10495438Y-12591714D02*
X10504962Y-12610762D01*
X10504962Y-12610762D02*
X10504962Y-12715524D01*
X10895438Y-12506000D02*
X10724010Y-12763143D01*
X11152581Y-12515524D02*
X11171629Y-12515524D01*
X11171629Y-12515524D02*
X11190677Y-12525048D01*
X11190677Y-12525048D02*
X11200200Y-12534571D01*
X11200200Y-12534571D02*
X11209724Y-12553619D01*
X11209724Y-12553619D02*
X11219248Y-12591714D01*
X11219248Y-12591714D02*
X11219248Y-12639333D01*
X11219248Y-12639333D02*
X11209724Y-12677428D01*
X11209724Y-12677428D02*
X11200200Y-12696476D01*
X11200200Y-12696476D02*
X11190677Y-12706000D01*
X11190677Y-12706000D02*
X11171629Y-12715524D01*
X11171629Y-12715524D02*
X11152581Y-12715524D01*
X11152581Y-12715524D02*
X11133534Y-12706000D01*
X11133534Y-12706000D02*
X11124010Y-12696476D01*
X11124010Y-12696476D02*
X11114486Y-12677428D01*
X11114486Y-12677428D02*
X11104962Y-12639333D01*
X11104962Y-12639333D02*
X11104962Y-12591714D01*
X11104962Y-12591714D02*
X11114486Y-12553619D01*
X11114486Y-12553619D02*
X11124010Y-12534571D01*
X11124010Y-12534571D02*
X11133534Y-12525048D01*
X11133534Y-12525048D02*
X11152581Y-12515524D01*
X11304962Y-12696476D02*
X11314486Y-12706000D01*
X11314486Y-12706000D02*
X11304962Y-12715524D01*
X11304962Y-12715524D02*
X11295438Y-12706000D01*
X11295438Y-12706000D02*
X11304962Y-12696476D01*
X11304962Y-12696476D02*
X11304962Y-12715524D01*
X11438296Y-12515524D02*
X11457343Y-12515524D01*
X11457343Y-12515524D02*
X11476391Y-12525048D01*
X11476391Y-12525048D02*
X11485915Y-12534571D01*
X11485915Y-12534571D02*
X11495438Y-12553619D01*
X11495438Y-12553619D02*
X11504962Y-12591714D01*
X11504962Y-12591714D02*
X11504962Y-12639333D01*
X11504962Y-12639333D02*
X11495438Y-12677428D01*
X11495438Y-12677428D02*
X11485915Y-12696476D01*
X11485915Y-12696476D02*
X11476391Y-12706000D01*
X11476391Y-12706000D02*
X11457343Y-12715524D01*
X11457343Y-12715524D02*
X11438296Y-12715524D01*
X11438296Y-12715524D02*
X11419248Y-12706000D01*
X11419248Y-12706000D02*
X11409724Y-12696476D01*
X11409724Y-12696476D02*
X11400200Y-12677428D01*
X11400200Y-12677428D02*
X11390677Y-12639333D01*
X11390677Y-12639333D02*
X11390677Y-12591714D01*
X11390677Y-12591714D02*
X11400200Y-12553619D01*
X11400200Y-12553619D02*
X11409724Y-12534571D01*
X11409724Y-12534571D02*
X11419248Y-12525048D01*
X11419248Y-12525048D02*
X11438296Y-12515524D01*
X11571629Y-12515524D02*
X11695438Y-12515524D01*
X11695438Y-12515524D02*
X11628772Y-12591714D01*
X11628772Y-12591714D02*
X11657343Y-12591714D01*
X11657343Y-12591714D02*
X11676391Y-12601238D01*
X11676391Y-12601238D02*
X11685915Y-12610762D01*
X11685915Y-12610762D02*
X11695438Y-12629809D01*
X11695438Y-12629809D02*
X11695438Y-12677428D01*
X11695438Y-12677428D02*
X11685915Y-12696476D01*
X11685915Y-12696476D02*
X11676391Y-12706000D01*
X11676391Y-12706000D02*
X11657343Y-12715524D01*
X11657343Y-12715524D02*
X11600200Y-12715524D01*
X11600200Y-12715524D02*
X11581153Y-12706000D01*
X11581153Y-12706000D02*
X11571629Y-12696476D01*
X11885915Y-12715524D02*
X11771629Y-12715524D01*
X11828772Y-12715524D02*
X11828772Y-12515524D01*
X11828772Y-12515524D02*
X11809724Y-12544095D01*
X11809724Y-12544095D02*
X11790677Y-12563143D01*
X11790677Y-12563143D02*
X11771629Y-12572667D01*
X12066867Y-12515524D02*
X11971629Y-12515524D01*
X11971629Y-12515524D02*
X11962105Y-12610762D01*
X11962105Y-12610762D02*
X11971629Y-12601238D01*
X11971629Y-12601238D02*
X11990677Y-12591714D01*
X11990677Y-12591714D02*
X12038296Y-12591714D01*
X12038296Y-12591714D02*
X12057343Y-12601238D01*
X12057343Y-12601238D02*
X12066867Y-12610762D01*
X12066867Y-12610762D02*
X12076391Y-12629809D01*
X12076391Y-12629809D02*
X12076391Y-12677428D01*
X12076391Y-12677428D02*
X12066867Y-12696476D01*
X12066867Y-12696476D02*
X12057343Y-12706000D01*
X12057343Y-12706000D02*
X12038296Y-12715524D01*
X12038296Y-12715524D02*
X11990677Y-12715524D01*
X11990677Y-12715524D02*
X11971629Y-12706000D01*
X11971629Y-12706000D02*
X11962105Y-12696476D01*
X12152581Y-12515524D02*
X12152581Y-12553619D01*
X12228772Y-12515524D02*
X12228772Y-12553619D01*
X12524010Y-12791714D02*
X12514486Y-12782190D01*
X12514486Y-12782190D02*
X12495439Y-12753619D01*
X12495439Y-12753619D02*
X12485915Y-12734571D01*
X12485915Y-12734571D02*
X12476391Y-12706000D01*
X12476391Y-12706000D02*
X12466867Y-12658381D01*
X12466867Y-12658381D02*
X12466867Y-12620286D01*
X12466867Y-12620286D02*
X12476391Y-12572667D01*
X12476391Y-12572667D02*
X12485915Y-12544095D01*
X12485915Y-12544095D02*
X12495439Y-12525048D01*
X12495439Y-12525048D02*
X12514486Y-12496476D01*
X12514486Y-12496476D02*
X12524010Y-12486952D01*
X12590677Y-12534571D02*
X12600200Y-12525048D01*
X12600200Y-12525048D02*
X12619248Y-12515524D01*
X12619248Y-12515524D02*
X12666867Y-12515524D01*
X12666867Y-12515524D02*
X12685915Y-12525048D01*
X12685915Y-12525048D02*
X12695439Y-12534571D01*
X12695439Y-12534571D02*
X12704962Y-12553619D01*
X12704962Y-12553619D02*
X12704962Y-12572667D01*
X12704962Y-12572667D02*
X12695439Y-12601238D01*
X12695439Y-12601238D02*
X12581153Y-12715524D01*
X12581153Y-12715524D02*
X12704962Y-12715524D01*
X12943058Y-12715524D02*
X12943058Y-12515524D01*
X13028772Y-12715524D02*
X13028772Y-12610762D01*
X13028772Y-12610762D02*
X13019248Y-12591714D01*
X13019248Y-12591714D02*
X13000201Y-12582190D01*
X13000201Y-12582190D02*
X12971629Y-12582190D01*
X12971629Y-12582190D02*
X12952581Y-12591714D01*
X12952581Y-12591714D02*
X12943058Y-12601238D01*
X13152581Y-12715524D02*
X13133534Y-12706000D01*
X13133534Y-12706000D02*
X13124010Y-12696476D01*
X13124010Y-12696476D02*
X13114486Y-12677428D01*
X13114486Y-12677428D02*
X13114486Y-12620286D01*
X13114486Y-12620286D02*
X13124010Y-12601238D01*
X13124010Y-12601238D02*
X13133534Y-12591714D01*
X13133534Y-12591714D02*
X13152581Y-12582190D01*
X13152581Y-12582190D02*
X13181153Y-12582190D01*
X13181153Y-12582190D02*
X13200201Y-12591714D01*
X13200201Y-12591714D02*
X13209724Y-12601238D01*
X13209724Y-12601238D02*
X13219248Y-12620286D01*
X13219248Y-12620286D02*
X13219248Y-12677428D01*
X13219248Y-12677428D02*
X13209724Y-12696476D01*
X13209724Y-12696476D02*
X13200201Y-12706000D01*
X13200201Y-12706000D02*
X13181153Y-12715524D01*
X13181153Y-12715524D02*
X13152581Y-12715524D01*
X13333534Y-12715524D02*
X13314486Y-12706000D01*
X13314486Y-12706000D02*
X13304962Y-12686952D01*
X13304962Y-12686952D02*
X13304962Y-12515524D01*
X13485915Y-12706000D02*
X13466867Y-12715524D01*
X13466867Y-12715524D02*
X13428772Y-12715524D01*
X13428772Y-12715524D02*
X13409724Y-12706000D01*
X13409724Y-12706000D02*
X13400201Y-12686952D01*
X13400201Y-12686952D02*
X13400201Y-12610762D01*
X13400201Y-12610762D02*
X13409724Y-12591714D01*
X13409724Y-12591714D02*
X13428772Y-12582190D01*
X13428772Y-12582190D02*
X13466867Y-12582190D01*
X13466867Y-12582190D02*
X13485915Y-12591714D01*
X13485915Y-12591714D02*
X13495439Y-12610762D01*
X13495439Y-12610762D02*
X13495439Y-12629809D01*
X13495439Y-12629809D02*
X13400201Y-12648857D01*
X13571629Y-12706000D02*
X13590677Y-12715524D01*
X13590677Y-12715524D02*
X13628772Y-12715524D01*
X13628772Y-12715524D02*
X13647820Y-12706000D01*
X13647820Y-12706000D02*
X13657343Y-12686952D01*
X13657343Y-12686952D02*
X13657343Y-12677428D01*
X13657343Y-12677428D02*
X13647820Y-12658381D01*
X13647820Y-12658381D02*
X13628772Y-12648857D01*
X13628772Y-12648857D02*
X13600201Y-12648857D01*
X13600201Y-12648857D02*
X13581153Y-12639333D01*
X13581153Y-12639333D02*
X13571629Y-12620286D01*
X13571629Y-12620286D02*
X13571629Y-12610762D01*
X13571629Y-12610762D02*
X13581153Y-12591714D01*
X13581153Y-12591714D02*
X13600201Y-12582190D01*
X13600201Y-12582190D02*
X13628772Y-12582190D01*
X13628772Y-12582190D02*
X13647820Y-12591714D01*
X13724010Y-12791714D02*
X13733534Y-12782190D01*
X13733534Y-12782190D02*
X13752582Y-12753619D01*
X13752582Y-12753619D02*
X13762105Y-12734571D01*
X13762105Y-12734571D02*
X13771629Y-12706000D01*
X13771629Y-12706000D02*
X13781153Y-12658381D01*
X13781153Y-12658381D02*
X13781153Y-12620286D01*
X13781153Y-12620286D02*
X13771629Y-12572667D01*
X13771629Y-12572667D02*
X13762105Y-12544095D01*
X13762105Y-12544095D02*
X13752582Y-12525048D01*
X13752582Y-12525048D02*
X13733534Y-12496476D01*
X13733534Y-12496476D02*
X13724010Y-12486952D01*
D10*
X8947461Y-12922356D02*
X8947461Y-12851644D01*
X8876749Y-12851644D01*
X8876749Y-12922356D01*
X8947461Y-12922356D01*
D11*
X9314486Y-12979524D02*
X9200200Y-12979524D01*
X9257343Y-12979524D02*
X9257343Y-12779524D01*
X9257343Y-12779524D02*
X9238295Y-12808095D01*
X9238295Y-12808095D02*
X9219248Y-12827143D01*
X9219248Y-12827143D02*
X9200200Y-12836667D01*
X9400200Y-12960476D02*
X9409724Y-12970000D01*
X9409724Y-12970000D02*
X9400200Y-12979524D01*
X9400200Y-12979524D02*
X9390676Y-12970000D01*
X9390676Y-12970000D02*
X9400200Y-12960476D01*
X9400200Y-12960476D02*
X9400200Y-12979524D01*
X9533534Y-12779524D02*
X9552581Y-12779524D01*
X9552581Y-12779524D02*
X9571629Y-12789048D01*
X9571629Y-12789048D02*
X9581153Y-12798571D01*
X9581153Y-12798571D02*
X9590676Y-12817619D01*
X9590676Y-12817619D02*
X9600200Y-12855714D01*
X9600200Y-12855714D02*
X9600200Y-12903333D01*
X9600200Y-12903333D02*
X9590676Y-12941428D01*
X9590676Y-12941428D02*
X9581153Y-12960476D01*
X9581153Y-12960476D02*
X9571629Y-12970000D01*
X9571629Y-12970000D02*
X9552581Y-12979524D01*
X9552581Y-12979524D02*
X9533534Y-12979524D01*
X9533534Y-12979524D02*
X9514486Y-12970000D01*
X9514486Y-12970000D02*
X9504962Y-12960476D01*
X9504962Y-12960476D02*
X9495438Y-12941428D01*
X9495438Y-12941428D02*
X9485915Y-12903333D01*
X9485915Y-12903333D02*
X9485915Y-12855714D01*
X9485915Y-12855714D02*
X9495438Y-12817619D01*
X9495438Y-12817619D02*
X9504962Y-12798571D01*
X9504962Y-12798571D02*
X9514486Y-12789048D01*
X9514486Y-12789048D02*
X9533534Y-12779524D01*
X9724010Y-12779524D02*
X9743057Y-12779524D01*
X9743057Y-12779524D02*
X9762105Y-12789048D01*
X9762105Y-12789048D02*
X9771629Y-12798571D01*
X9771629Y-12798571D02*
X9781153Y-12817619D01*
X9781153Y-12817619D02*
X9790676Y-12855714D01*
X9790676Y-12855714D02*
X9790676Y-12903333D01*
X9790676Y-12903333D02*
X9781153Y-12941428D01*
X9781153Y-12941428D02*
X9771629Y-12960476D01*
X9771629Y-12960476D02*
X9762105Y-12970000D01*
X9762105Y-12970000D02*
X9743057Y-12979524D01*
X9743057Y-12979524D02*
X9724010Y-12979524D01*
X9724010Y-12979524D02*
X9704962Y-12970000D01*
X9704962Y-12970000D02*
X9695438Y-12960476D01*
X9695438Y-12960476D02*
X9685915Y-12941428D01*
X9685915Y-12941428D02*
X9676391Y-12903333D01*
X9676391Y-12903333D02*
X9676391Y-12855714D01*
X9676391Y-12855714D02*
X9685915Y-12817619D01*
X9685915Y-12817619D02*
X9695438Y-12798571D01*
X9695438Y-12798571D02*
X9704962Y-12789048D01*
X9704962Y-12789048D02*
X9724010Y-12779524D01*
X9914486Y-12779524D02*
X9933534Y-12779524D01*
X9933534Y-12779524D02*
X9952581Y-12789048D01*
X9952581Y-12789048D02*
X9962105Y-12798571D01*
X9962105Y-12798571D02*
X9971629Y-12817619D01*
X9971629Y-12817619D02*
X9981153Y-12855714D01*
X9981153Y-12855714D02*
X9981153Y-12903333D01*
X9981153Y-12903333D02*
X9971629Y-12941428D01*
X9971629Y-12941428D02*
X9962105Y-12960476D01*
X9962105Y-12960476D02*
X9952581Y-12970000D01*
X9952581Y-12970000D02*
X9933534Y-12979524D01*
X9933534Y-12979524D02*
X9914486Y-12979524D01*
X9914486Y-12979524D02*
X9895438Y-12970000D01*
X9895438Y-12970000D02*
X9885915Y-12960476D01*
X9885915Y-12960476D02*
X9876391Y-12941428D01*
X9876391Y-12941428D02*
X9866867Y-12903333D01*
X9866867Y-12903333D02*
X9866867Y-12855714D01*
X9866867Y-12855714D02*
X9876391Y-12817619D01*
X9876391Y-12817619D02*
X9885915Y-12798571D01*
X9885915Y-12798571D02*
X9895438Y-12789048D01*
X9895438Y-12789048D02*
X9914486Y-12779524D01*
X10066867Y-12979524D02*
X10066867Y-12846190D01*
X10066867Y-12865238D02*
X10076391Y-12855714D01*
X10076391Y-12855714D02*
X10095438Y-12846190D01*
X10095438Y-12846190D02*
X10124010Y-12846190D01*
X10124010Y-12846190D02*
X10143057Y-12855714D01*
X10143057Y-12855714D02*
X10152581Y-12874762D01*
X10152581Y-12874762D02*
X10152581Y-12979524D01*
X10152581Y-12874762D02*
X10162105Y-12855714D01*
X10162105Y-12855714D02*
X10181153Y-12846190D01*
X10181153Y-12846190D02*
X10209724Y-12846190D01*
X10209724Y-12846190D02*
X10228772Y-12855714D01*
X10228772Y-12855714D02*
X10238296Y-12874762D01*
X10238296Y-12874762D02*
X10238296Y-12979524D01*
X10333534Y-12979524D02*
X10333534Y-12846190D01*
X10333534Y-12865238D02*
X10343057Y-12855714D01*
X10343057Y-12855714D02*
X10362105Y-12846190D01*
X10362105Y-12846190D02*
X10390677Y-12846190D01*
X10390677Y-12846190D02*
X10409724Y-12855714D01*
X10409724Y-12855714D02*
X10419248Y-12874762D01*
X10419248Y-12874762D02*
X10419248Y-12979524D01*
X10419248Y-12874762D02*
X10428772Y-12855714D01*
X10428772Y-12855714D02*
X10447819Y-12846190D01*
X10447819Y-12846190D02*
X10476391Y-12846190D01*
X10476391Y-12846190D02*
X10495438Y-12855714D01*
X10495438Y-12855714D02*
X10504962Y-12874762D01*
X10504962Y-12874762D02*
X10504962Y-12979524D01*
X10895438Y-12770000D02*
X10724010Y-13027143D01*
X11152581Y-12779524D02*
X11171629Y-12779524D01*
X11171629Y-12779524D02*
X11190677Y-12789048D01*
X11190677Y-12789048D02*
X11200200Y-12798571D01*
X11200200Y-12798571D02*
X11209724Y-12817619D01*
X11209724Y-12817619D02*
X11219248Y-12855714D01*
X11219248Y-12855714D02*
X11219248Y-12903333D01*
X11219248Y-12903333D02*
X11209724Y-12941428D01*
X11209724Y-12941428D02*
X11200200Y-12960476D01*
X11200200Y-12960476D02*
X11190677Y-12970000D01*
X11190677Y-12970000D02*
X11171629Y-12979524D01*
X11171629Y-12979524D02*
X11152581Y-12979524D01*
X11152581Y-12979524D02*
X11133534Y-12970000D01*
X11133534Y-12970000D02*
X11124010Y-12960476D01*
X11124010Y-12960476D02*
X11114486Y-12941428D01*
X11114486Y-12941428D02*
X11104962Y-12903333D01*
X11104962Y-12903333D02*
X11104962Y-12855714D01*
X11104962Y-12855714D02*
X11114486Y-12817619D01*
X11114486Y-12817619D02*
X11124010Y-12798571D01*
X11124010Y-12798571D02*
X11133534Y-12789048D01*
X11133534Y-12789048D02*
X11152581Y-12779524D01*
X11304962Y-12960476D02*
X11314486Y-12970000D01*
X11314486Y-12970000D02*
X11304962Y-12979524D01*
X11304962Y-12979524D02*
X11295438Y-12970000D01*
X11295438Y-12970000D02*
X11304962Y-12960476D01*
X11304962Y-12960476D02*
X11304962Y-12979524D01*
X11438296Y-12779524D02*
X11457343Y-12779524D01*
X11457343Y-12779524D02*
X11476391Y-12789048D01*
X11476391Y-12789048D02*
X11485915Y-12798571D01*
X11485915Y-12798571D02*
X11495438Y-12817619D01*
X11495438Y-12817619D02*
X11504962Y-12855714D01*
X11504962Y-12855714D02*
X11504962Y-12903333D01*
X11504962Y-12903333D02*
X11495438Y-12941428D01*
X11495438Y-12941428D02*
X11485915Y-12960476D01*
X11485915Y-12960476D02*
X11476391Y-12970000D01*
X11476391Y-12970000D02*
X11457343Y-12979524D01*
X11457343Y-12979524D02*
X11438296Y-12979524D01*
X11438296Y-12979524D02*
X11419248Y-12970000D01*
X11419248Y-12970000D02*
X11409724Y-12960476D01*
X11409724Y-12960476D02*
X11400200Y-12941428D01*
X11400200Y-12941428D02*
X11390677Y-12903333D01*
X11390677Y-12903333D02*
X11390677Y-12855714D01*
X11390677Y-12855714D02*
X11400200Y-12817619D01*
X11400200Y-12817619D02*
X11409724Y-12798571D01*
X11409724Y-12798571D02*
X11419248Y-12789048D01*
X11419248Y-12789048D02*
X11438296Y-12779524D01*
X11571629Y-12779524D02*
X11695438Y-12779524D01*
X11695438Y-12779524D02*
X11628772Y-12855714D01*
X11628772Y-12855714D02*
X11657343Y-12855714D01*
X11657343Y-12855714D02*
X11676391Y-12865238D01*
X11676391Y-12865238D02*
X11685915Y-12874762D01*
X11685915Y-12874762D02*
X11695438Y-12893809D01*
X11695438Y-12893809D02*
X11695438Y-12941428D01*
X11695438Y-12941428D02*
X11685915Y-12960476D01*
X11685915Y-12960476D02*
X11676391Y-12970000D01*
X11676391Y-12970000D02*
X11657343Y-12979524D01*
X11657343Y-12979524D02*
X11600200Y-12979524D01*
X11600200Y-12979524D02*
X11581153Y-12970000D01*
X11581153Y-12970000D02*
X11571629Y-12960476D01*
X11790677Y-12979524D02*
X11828772Y-12979524D01*
X11828772Y-12979524D02*
X11847819Y-12970000D01*
X11847819Y-12970000D02*
X11857343Y-12960476D01*
X11857343Y-12960476D02*
X11876391Y-12931905D01*
X11876391Y-12931905D02*
X11885915Y-12893809D01*
X11885915Y-12893809D02*
X11885915Y-12817619D01*
X11885915Y-12817619D02*
X11876391Y-12798571D01*
X11876391Y-12798571D02*
X11866867Y-12789048D01*
X11866867Y-12789048D02*
X11847819Y-12779524D01*
X11847819Y-12779524D02*
X11809724Y-12779524D01*
X11809724Y-12779524D02*
X11790677Y-12789048D01*
X11790677Y-12789048D02*
X11781153Y-12798571D01*
X11781153Y-12798571D02*
X11771629Y-12817619D01*
X11771629Y-12817619D02*
X11771629Y-12865238D01*
X11771629Y-12865238D02*
X11781153Y-12884286D01*
X11781153Y-12884286D02*
X11790677Y-12893809D01*
X11790677Y-12893809D02*
X11809724Y-12903333D01*
X11809724Y-12903333D02*
X11847819Y-12903333D01*
X11847819Y-12903333D02*
X11866867Y-12893809D01*
X11866867Y-12893809D02*
X11876391Y-12884286D01*
X11876391Y-12884286D02*
X11885915Y-12865238D01*
X12057343Y-12846190D02*
X12057343Y-12979524D01*
X12009724Y-12770000D02*
X11962105Y-12912857D01*
X11962105Y-12912857D02*
X12085915Y-12912857D01*
X12152581Y-12779524D02*
X12152581Y-12817619D01*
X12228772Y-12779524D02*
X12228772Y-12817619D01*
X12524010Y-13055714D02*
X12514486Y-13046190D01*
X12514486Y-13046190D02*
X12495439Y-13017619D01*
X12495439Y-13017619D02*
X12485915Y-12998571D01*
X12485915Y-12998571D02*
X12476391Y-12970000D01*
X12476391Y-12970000D02*
X12466867Y-12922381D01*
X12466867Y-12922381D02*
X12466867Y-12884286D01*
X12466867Y-12884286D02*
X12476391Y-12836667D01*
X12476391Y-12836667D02*
X12485915Y-12808095D01*
X12485915Y-12808095D02*
X12495439Y-12789048D01*
X12495439Y-12789048D02*
X12514486Y-12760476D01*
X12514486Y-12760476D02*
X12524010Y-12750952D01*
X12590677Y-12798571D02*
X12600200Y-12789048D01*
X12600200Y-12789048D02*
X12619248Y-12779524D01*
X12619248Y-12779524D02*
X12666867Y-12779524D01*
X12666867Y-12779524D02*
X12685915Y-12789048D01*
X12685915Y-12789048D02*
X12695439Y-12798571D01*
X12695439Y-12798571D02*
X12704962Y-12817619D01*
X12704962Y-12817619D02*
X12704962Y-12836667D01*
X12704962Y-12836667D02*
X12695439Y-12865238D01*
X12695439Y-12865238D02*
X12581153Y-12979524D01*
X12581153Y-12979524D02*
X12704962Y-12979524D01*
X12781153Y-12798571D02*
X12790677Y-12789048D01*
X12790677Y-12789048D02*
X12809724Y-12779524D01*
X12809724Y-12779524D02*
X12857343Y-12779524D01*
X12857343Y-12779524D02*
X12876391Y-12789048D01*
X12876391Y-12789048D02*
X12885915Y-12798571D01*
X12885915Y-12798571D02*
X12895439Y-12817619D01*
X12895439Y-12817619D02*
X12895439Y-12836667D01*
X12895439Y-12836667D02*
X12885915Y-12865238D01*
X12885915Y-12865238D02*
X12771629Y-12979524D01*
X12771629Y-12979524D02*
X12895439Y-12979524D01*
X13133534Y-12979524D02*
X13133534Y-12779524D01*
X13219248Y-12979524D02*
X13219248Y-12874762D01*
X13219248Y-12874762D02*
X13209724Y-12855714D01*
X13209724Y-12855714D02*
X13190677Y-12846190D01*
X13190677Y-12846190D02*
X13162105Y-12846190D01*
X13162105Y-12846190D02*
X13143058Y-12855714D01*
X13143058Y-12855714D02*
X13133534Y-12865238D01*
X13343058Y-12979524D02*
X13324010Y-12970000D01*
X13324010Y-12970000D02*
X13314486Y-12960476D01*
X13314486Y-12960476D02*
X13304962Y-12941428D01*
X13304962Y-12941428D02*
X13304962Y-12884286D01*
X13304962Y-12884286D02*
X13314486Y-12865238D01*
X13314486Y-12865238D02*
X13324010Y-12855714D01*
X13324010Y-12855714D02*
X13343058Y-12846190D01*
X13343058Y-12846190D02*
X13371629Y-12846190D01*
X13371629Y-12846190D02*
X13390677Y-12855714D01*
X13390677Y-12855714D02*
X13400201Y-12865238D01*
X13400201Y-12865238D02*
X13409724Y-12884286D01*
X13409724Y-12884286D02*
X13409724Y-12941428D01*
X13409724Y-12941428D02*
X13400201Y-12960476D01*
X13400201Y-12960476D02*
X13390677Y-12970000D01*
X13390677Y-12970000D02*
X13371629Y-12979524D01*
X13371629Y-12979524D02*
X13343058Y-12979524D01*
X13524010Y-12979524D02*
X13504962Y-12970000D01*
X13504962Y-12970000D02*
X13495439Y-12950952D01*
X13495439Y-12950952D02*
X13495439Y-12779524D01*
X13676391Y-12970000D02*
X13657343Y-12979524D01*
X13657343Y-12979524D02*
X13619248Y-12979524D01*
X13619248Y-12979524D02*
X13600201Y-12970000D01*
X13600201Y-12970000D02*
X13590677Y-12950952D01*
X13590677Y-12950952D02*
X13590677Y-12874762D01*
X13590677Y-12874762D02*
X13600201Y-12855714D01*
X13600201Y-12855714D02*
X13619248Y-12846190D01*
X13619248Y-12846190D02*
X13657343Y-12846190D01*
X13657343Y-12846190D02*
X13676391Y-12855714D01*
X13676391Y-12855714D02*
X13685915Y-12874762D01*
X13685915Y-12874762D02*
X13685915Y-12893809D01*
X13685915Y-12893809D02*
X13590677Y-12912857D01*
X13762105Y-12970000D02*
X13781153Y-12979524D01*
X13781153Y-12979524D02*
X13819248Y-12979524D01*
X13819248Y-12979524D02*
X13838296Y-12970000D01*
X13838296Y-12970000D02*
X13847820Y-12950952D01*
X13847820Y-12950952D02*
X13847820Y-12941428D01*
X13847820Y-12941428D02*
X13838296Y-12922381D01*
X13838296Y-12922381D02*
X13819248Y-12912857D01*
X13819248Y-12912857D02*
X13790677Y-12912857D01*
X13790677Y-12912857D02*
X13771629Y-12903333D01*
X13771629Y-12903333D02*
X13762105Y-12884286D01*
X13762105Y-12884286D02*
X13762105Y-12874762D01*
X13762105Y-12874762D02*
X13771629Y-12855714D01*
X13771629Y-12855714D02*
X13790677Y-12846190D01*
X13790677Y-12846190D02*
X13819248Y-12846190D01*
X13819248Y-12846190D02*
X13838296Y-12855714D01*
X13914486Y-13055714D02*
X13924010Y-13046190D01*
X13924010Y-13046190D02*
X13943058Y-13017619D01*
X13943058Y-13017619D02*
X13952582Y-12998571D01*
X13952582Y-12998571D02*
X13962105Y-12970000D01*
X13962105Y-12970000D02*
X13971629Y-12922381D01*
X13971629Y-12922381D02*
X13971629Y-12884286D01*
X13971629Y-12884286D02*
X13962105Y-12836667D01*
X13962105Y-12836667D02*
X13952582Y-12808095D01*
X13952582Y-12808095D02*
X13943058Y-12789048D01*
X13943058Y-12789048D02*
X13924010Y-12760476D01*
X13924010Y-12760476D02*
X13914486Y-12750952D01*
D15*
X8907105Y-13206000D02*
X8962105Y-13151000D01*
X8907105Y-13096000D01*
X8852105Y-13151000D01*
X8907105Y-13206000D01*
D11*
X9314486Y-13243524D02*
X9200200Y-13243524D01*
X9257343Y-13243524D02*
X9257343Y-13043524D01*
X9257343Y-13043524D02*
X9238295Y-13072095D01*
X9238295Y-13072095D02*
X9219248Y-13091143D01*
X9219248Y-13091143D02*
X9200200Y-13100667D01*
X9400200Y-13224476D02*
X9409724Y-13234000D01*
X9409724Y-13234000D02*
X9400200Y-13243524D01*
X9400200Y-13243524D02*
X9390676Y-13234000D01*
X9390676Y-13234000D02*
X9400200Y-13224476D01*
X9400200Y-13224476D02*
X9400200Y-13243524D01*
X9600200Y-13243524D02*
X9485915Y-13243524D01*
X9543057Y-13243524D02*
X9543057Y-13043524D01*
X9543057Y-13043524D02*
X9524010Y-13072095D01*
X9524010Y-13072095D02*
X9504962Y-13091143D01*
X9504962Y-13091143D02*
X9485915Y-13100667D01*
X9724010Y-13043524D02*
X9743057Y-13043524D01*
X9743057Y-13043524D02*
X9762105Y-13053048D01*
X9762105Y-13053048D02*
X9771629Y-13062571D01*
X9771629Y-13062571D02*
X9781153Y-13081619D01*
X9781153Y-13081619D02*
X9790676Y-13119714D01*
X9790676Y-13119714D02*
X9790676Y-13167333D01*
X9790676Y-13167333D02*
X9781153Y-13205428D01*
X9781153Y-13205428D02*
X9771629Y-13224476D01*
X9771629Y-13224476D02*
X9762105Y-13234000D01*
X9762105Y-13234000D02*
X9743057Y-13243524D01*
X9743057Y-13243524D02*
X9724010Y-13243524D01*
X9724010Y-13243524D02*
X9704962Y-13234000D01*
X9704962Y-13234000D02*
X9695438Y-13224476D01*
X9695438Y-13224476D02*
X9685915Y-13205428D01*
X9685915Y-13205428D02*
X9676391Y-13167333D01*
X9676391Y-13167333D02*
X9676391Y-13119714D01*
X9676391Y-13119714D02*
X9685915Y-13081619D01*
X9685915Y-13081619D02*
X9695438Y-13062571D01*
X9695438Y-13062571D02*
X9704962Y-13053048D01*
X9704962Y-13053048D02*
X9724010Y-13043524D01*
X9914486Y-13043524D02*
X9933534Y-13043524D01*
X9933534Y-13043524D02*
X9952581Y-13053048D01*
X9952581Y-13053048D02*
X9962105Y-13062571D01*
X9962105Y-13062571D02*
X9971629Y-13081619D01*
X9971629Y-13081619D02*
X9981153Y-13119714D01*
X9981153Y-13119714D02*
X9981153Y-13167333D01*
X9981153Y-13167333D02*
X9971629Y-13205428D01*
X9971629Y-13205428D02*
X9962105Y-13224476D01*
X9962105Y-13224476D02*
X9952581Y-13234000D01*
X9952581Y-13234000D02*
X9933534Y-13243524D01*
X9933534Y-13243524D02*
X9914486Y-13243524D01*
X9914486Y-13243524D02*
X9895438Y-13234000D01*
X9895438Y-13234000D02*
X9885915Y-13224476D01*
X9885915Y-13224476D02*
X9876391Y-13205428D01*
X9876391Y-13205428D02*
X9866867Y-13167333D01*
X9866867Y-13167333D02*
X9866867Y-13119714D01*
X9866867Y-13119714D02*
X9876391Y-13081619D01*
X9876391Y-13081619D02*
X9885915Y-13062571D01*
X9885915Y-13062571D02*
X9895438Y-13053048D01*
X9895438Y-13053048D02*
X9914486Y-13043524D01*
X10066867Y-13243524D02*
X10066867Y-13110190D01*
X10066867Y-13129238D02*
X10076391Y-13119714D01*
X10076391Y-13119714D02*
X10095438Y-13110190D01*
X10095438Y-13110190D02*
X10124010Y-13110190D01*
X10124010Y-13110190D02*
X10143057Y-13119714D01*
X10143057Y-13119714D02*
X10152581Y-13138762D01*
X10152581Y-13138762D02*
X10152581Y-13243524D01*
X10152581Y-13138762D02*
X10162105Y-13119714D01*
X10162105Y-13119714D02*
X10181153Y-13110190D01*
X10181153Y-13110190D02*
X10209724Y-13110190D01*
X10209724Y-13110190D02*
X10228772Y-13119714D01*
X10228772Y-13119714D02*
X10238296Y-13138762D01*
X10238296Y-13138762D02*
X10238296Y-13243524D01*
X10333534Y-13243524D02*
X10333534Y-13110190D01*
X10333534Y-13129238D02*
X10343057Y-13119714D01*
X10343057Y-13119714D02*
X10362105Y-13110190D01*
X10362105Y-13110190D02*
X10390677Y-13110190D01*
X10390677Y-13110190D02*
X10409724Y-13119714D01*
X10409724Y-13119714D02*
X10419248Y-13138762D01*
X10419248Y-13138762D02*
X10419248Y-13243524D01*
X10419248Y-13138762D02*
X10428772Y-13119714D01*
X10428772Y-13119714D02*
X10447819Y-13110190D01*
X10447819Y-13110190D02*
X10476391Y-13110190D01*
X10476391Y-13110190D02*
X10495438Y-13119714D01*
X10495438Y-13119714D02*
X10504962Y-13138762D01*
X10504962Y-13138762D02*
X10504962Y-13243524D01*
X10895438Y-13034000D02*
X10724010Y-13291143D01*
X11152581Y-13043524D02*
X11171629Y-13043524D01*
X11171629Y-13043524D02*
X11190677Y-13053048D01*
X11190677Y-13053048D02*
X11200200Y-13062571D01*
X11200200Y-13062571D02*
X11209724Y-13081619D01*
X11209724Y-13081619D02*
X11219248Y-13119714D01*
X11219248Y-13119714D02*
X11219248Y-13167333D01*
X11219248Y-13167333D02*
X11209724Y-13205428D01*
X11209724Y-13205428D02*
X11200200Y-13224476D01*
X11200200Y-13224476D02*
X11190677Y-13234000D01*
X11190677Y-13234000D02*
X11171629Y-13243524D01*
X11171629Y-13243524D02*
X11152581Y-13243524D01*
X11152581Y-13243524D02*
X11133534Y-13234000D01*
X11133534Y-13234000D02*
X11124010Y-13224476D01*
X11124010Y-13224476D02*
X11114486Y-13205428D01*
X11114486Y-13205428D02*
X11104962Y-13167333D01*
X11104962Y-13167333D02*
X11104962Y-13119714D01*
X11104962Y-13119714D02*
X11114486Y-13081619D01*
X11114486Y-13081619D02*
X11124010Y-13062571D01*
X11124010Y-13062571D02*
X11133534Y-13053048D01*
X11133534Y-13053048D02*
X11152581Y-13043524D01*
X11304962Y-13224476D02*
X11314486Y-13234000D01*
X11314486Y-13234000D02*
X11304962Y-13243524D01*
X11304962Y-13243524D02*
X11295438Y-13234000D01*
X11295438Y-13234000D02*
X11304962Y-13224476D01*
X11304962Y-13224476D02*
X11304962Y-13243524D01*
X11438296Y-13043524D02*
X11457343Y-13043524D01*
X11457343Y-13043524D02*
X11476391Y-13053048D01*
X11476391Y-13053048D02*
X11485915Y-13062571D01*
X11485915Y-13062571D02*
X11495438Y-13081619D01*
X11495438Y-13081619D02*
X11504962Y-13119714D01*
X11504962Y-13119714D02*
X11504962Y-13167333D01*
X11504962Y-13167333D02*
X11495438Y-13205428D01*
X11495438Y-13205428D02*
X11485915Y-13224476D01*
X11485915Y-13224476D02*
X11476391Y-13234000D01*
X11476391Y-13234000D02*
X11457343Y-13243524D01*
X11457343Y-13243524D02*
X11438296Y-13243524D01*
X11438296Y-13243524D02*
X11419248Y-13234000D01*
X11419248Y-13234000D02*
X11409724Y-13224476D01*
X11409724Y-13224476D02*
X11400200Y-13205428D01*
X11400200Y-13205428D02*
X11390677Y-13167333D01*
X11390677Y-13167333D02*
X11390677Y-13119714D01*
X11390677Y-13119714D02*
X11400200Y-13081619D01*
X11400200Y-13081619D02*
X11409724Y-13062571D01*
X11409724Y-13062571D02*
X11419248Y-13053048D01*
X11419248Y-13053048D02*
X11438296Y-13043524D01*
X11676391Y-13110190D02*
X11676391Y-13243524D01*
X11628772Y-13034000D02*
X11581153Y-13176857D01*
X11581153Y-13176857D02*
X11704962Y-13176857D01*
X11762105Y-13043524D02*
X11885915Y-13043524D01*
X11885915Y-13043524D02*
X11819248Y-13119714D01*
X11819248Y-13119714D02*
X11847819Y-13119714D01*
X11847819Y-13119714D02*
X11866867Y-13129238D01*
X11866867Y-13129238D02*
X11876391Y-13138762D01*
X11876391Y-13138762D02*
X11885915Y-13157809D01*
X11885915Y-13157809D02*
X11885915Y-13205428D01*
X11885915Y-13205428D02*
X11876391Y-13224476D01*
X11876391Y-13224476D02*
X11866867Y-13234000D01*
X11866867Y-13234000D02*
X11847819Y-13243524D01*
X11847819Y-13243524D02*
X11790677Y-13243524D01*
X11790677Y-13243524D02*
X11771629Y-13234000D01*
X11771629Y-13234000D02*
X11762105Y-13224476D01*
X11952581Y-13043524D02*
X12076391Y-13043524D01*
X12076391Y-13043524D02*
X12009724Y-13119714D01*
X12009724Y-13119714D02*
X12038296Y-13119714D01*
X12038296Y-13119714D02*
X12057343Y-13129238D01*
X12057343Y-13129238D02*
X12066867Y-13138762D01*
X12066867Y-13138762D02*
X12076391Y-13157809D01*
X12076391Y-13157809D02*
X12076391Y-13205428D01*
X12076391Y-13205428D02*
X12066867Y-13224476D01*
X12066867Y-13224476D02*
X12057343Y-13234000D01*
X12057343Y-13234000D02*
X12038296Y-13243524D01*
X12038296Y-13243524D02*
X11981153Y-13243524D01*
X11981153Y-13243524D02*
X11962105Y-13234000D01*
X11962105Y-13234000D02*
X11952581Y-13224476D01*
X12152581Y-13043524D02*
X12152581Y-13081619D01*
X12228772Y-13043524D02*
X12228772Y-13081619D01*
X12524010Y-13319714D02*
X12514486Y-13310190D01*
X12514486Y-13310190D02*
X12495439Y-13281619D01*
X12495439Y-13281619D02*
X12485915Y-13262571D01*
X12485915Y-13262571D02*
X12476391Y-13234000D01*
X12476391Y-13234000D02*
X12466867Y-13186381D01*
X12466867Y-13186381D02*
X12466867Y-13148286D01*
X12466867Y-13148286D02*
X12476391Y-13100667D01*
X12476391Y-13100667D02*
X12485915Y-13072095D01*
X12485915Y-13072095D02*
X12495439Y-13053048D01*
X12495439Y-13053048D02*
X12514486Y-13024476D01*
X12514486Y-13024476D02*
X12524010Y-13014952D01*
X12628772Y-13129238D02*
X12609724Y-13119714D01*
X12609724Y-13119714D02*
X12600200Y-13110190D01*
X12600200Y-13110190D02*
X12590677Y-13091143D01*
X12590677Y-13091143D02*
X12590677Y-13081619D01*
X12590677Y-13081619D02*
X12600200Y-13062571D01*
X12600200Y-13062571D02*
X12609724Y-13053048D01*
X12609724Y-13053048D02*
X12628772Y-13043524D01*
X12628772Y-13043524D02*
X12666867Y-13043524D01*
X12666867Y-13043524D02*
X12685915Y-13053048D01*
X12685915Y-13053048D02*
X12695439Y-13062571D01*
X12695439Y-13062571D02*
X12704962Y-13081619D01*
X12704962Y-13081619D02*
X12704962Y-13091143D01*
X12704962Y-13091143D02*
X12695439Y-13110190D01*
X12695439Y-13110190D02*
X12685915Y-13119714D01*
X12685915Y-13119714D02*
X12666867Y-13129238D01*
X12666867Y-13129238D02*
X12628772Y-13129238D01*
X12628772Y-13129238D02*
X12609724Y-13138762D01*
X12609724Y-13138762D02*
X12600200Y-13148286D01*
X12600200Y-13148286D02*
X12590677Y-13167333D01*
X12590677Y-13167333D02*
X12590677Y-13205428D01*
X12590677Y-13205428D02*
X12600200Y-13224476D01*
X12600200Y-13224476D02*
X12609724Y-13234000D01*
X12609724Y-13234000D02*
X12628772Y-13243524D01*
X12628772Y-13243524D02*
X12666867Y-13243524D01*
X12666867Y-13243524D02*
X12685915Y-13234000D01*
X12685915Y-13234000D02*
X12695439Y-13224476D01*
X12695439Y-13224476D02*
X12704962Y-13205428D01*
X12704962Y-13205428D02*
X12704962Y-13167333D01*
X12704962Y-13167333D02*
X12695439Y-13148286D01*
X12695439Y-13148286D02*
X12685915Y-13138762D01*
X12685915Y-13138762D02*
X12666867Y-13129238D01*
X12943058Y-13243524D02*
X12943058Y-13043524D01*
X13028772Y-13243524D02*
X13028772Y-13138762D01*
X13028772Y-13138762D02*
X13019248Y-13119714D01*
X13019248Y-13119714D02*
X13000201Y-13110190D01*
X13000201Y-13110190D02*
X12971629Y-13110190D01*
X12971629Y-13110190D02*
X12952581Y-13119714D01*
X12952581Y-13119714D02*
X12943058Y-13129238D01*
X13152581Y-13243524D02*
X13133534Y-13234000D01*
X13133534Y-13234000D02*
X13124010Y-13224476D01*
X13124010Y-13224476D02*
X13114486Y-13205428D01*
X13114486Y-13205428D02*
X13114486Y-13148286D01*
X13114486Y-13148286D02*
X13124010Y-13129238D01*
X13124010Y-13129238D02*
X13133534Y-13119714D01*
X13133534Y-13119714D02*
X13152581Y-13110190D01*
X13152581Y-13110190D02*
X13181153Y-13110190D01*
X13181153Y-13110190D02*
X13200201Y-13119714D01*
X13200201Y-13119714D02*
X13209724Y-13129238D01*
X13209724Y-13129238D02*
X13219248Y-13148286D01*
X13219248Y-13148286D02*
X13219248Y-13205428D01*
X13219248Y-13205428D02*
X13209724Y-13224476D01*
X13209724Y-13224476D02*
X13200201Y-13234000D01*
X13200201Y-13234000D02*
X13181153Y-13243524D01*
X13181153Y-13243524D02*
X13152581Y-13243524D01*
X13333534Y-13243524D02*
X13314486Y-13234000D01*
X13314486Y-13234000D02*
X13304962Y-13214952D01*
X13304962Y-13214952D02*
X13304962Y-13043524D01*
X13485915Y-13234000D02*
X13466867Y-13243524D01*
X13466867Y-13243524D02*
X13428772Y-13243524D01*
X13428772Y-13243524D02*
X13409724Y-13234000D01*
X13409724Y-13234000D02*
X13400201Y-13214952D01*
X13400201Y-13214952D02*
X13400201Y-13138762D01*
X13400201Y-13138762D02*
X13409724Y-13119714D01*
X13409724Y-13119714D02*
X13428772Y-13110190D01*
X13428772Y-13110190D02*
X13466867Y-13110190D01*
X13466867Y-13110190D02*
X13485915Y-13119714D01*
X13485915Y-13119714D02*
X13495439Y-13138762D01*
X13495439Y-13138762D02*
X13495439Y-13157809D01*
X13495439Y-13157809D02*
X13400201Y-13176857D01*
X13571629Y-13234000D02*
X13590677Y-13243524D01*
X13590677Y-13243524D02*
X13628772Y-13243524D01*
X13628772Y-13243524D02*
X13647820Y-13234000D01*
X13647820Y-13234000D02*
X13657343Y-13214952D01*
X13657343Y-13214952D02*
X13657343Y-13205428D01*
X13657343Y-13205428D02*
X13647820Y-13186381D01*
X13647820Y-13186381D02*
X13628772Y-13176857D01*
X13628772Y-13176857D02*
X13600201Y-13176857D01*
X13600201Y-13176857D02*
X13581153Y-13167333D01*
X13581153Y-13167333D02*
X13571629Y-13148286D01*
X13571629Y-13148286D02*
X13571629Y-13138762D01*
X13571629Y-13138762D02*
X13581153Y-13119714D01*
X13581153Y-13119714D02*
X13600201Y-13110190D01*
X13600201Y-13110190D02*
X13628772Y-13110190D01*
X13628772Y-13110190D02*
X13647820Y-13119714D01*
X13724010Y-13319714D02*
X13733534Y-13310190D01*
X13733534Y-13310190D02*
X13752582Y-13281619D01*
X13752582Y-13281619D02*
X13762105Y-13262571D01*
X13762105Y-13262571D02*
X13771629Y-13234000D01*
X13771629Y-13234000D02*
X13781153Y-13186381D01*
X13781153Y-13186381D02*
X13781153Y-13148286D01*
X13781153Y-13148286D02*
X13771629Y-13100667D01*
X13771629Y-13100667D02*
X13762105Y-13072095D01*
X13762105Y-13072095D02*
X13752582Y-13053048D01*
X13752582Y-13053048D02*
X13733534Y-13024476D01*
X13733534Y-13024476D02*
X13724010Y-13014952D01*
M02*
