%TF.GenerationSoftware,KiCad,Pcbnew,7.0.1*%
%TF.CreationDate,2023-04-13T23:50:02-04:00*%
%TF.ProjectId,YakBak-soldering-kit,59616b42-616b-42d7-936f-6c646572696e,rev?*%
%TF.SameCoordinates,Original*%
%TF.FileFunction,Copper,L2,Bot*%
%TF.FilePolarity,Positive*%
%FSLAX46Y46*%
G04 Gerber Fmt 4.6, Leading zero omitted, Abs format (unit mm)*
G04 Created by KiCad (PCBNEW 7.0.1) date 2023-04-13 23:50:02*
%MOMM*%
%LPD*%
G01*
G04 APERTURE LIST*
%TA.AperFunction,ComponentPad*%
%ADD10R,1.700000X1.700000*%
%TD*%
%TA.AperFunction,ComponentPad*%
%ADD11O,1.700000X1.700000*%
%TD*%
%TA.AperFunction,ComponentPad*%
%ADD12C,2.000000*%
%TD*%
%TA.AperFunction,ComponentPad*%
%ADD13C,1.600000*%
%TD*%
%TA.AperFunction,ComponentPad*%
%ADD14C,1.400000*%
%TD*%
%TA.AperFunction,ComponentPad*%
%ADD15O,1.400000X1.400000*%
%TD*%
%TA.AperFunction,ViaPad*%
%ADD16C,0.800000*%
%TD*%
%TA.AperFunction,Conductor*%
%ADD17C,1.000000*%
%TD*%
G04 APERTURE END LIST*
D10*
%TO.P,J2,1,Pin_1*%
%TO.N,/D0*%
X122250000Y-109660000D03*
D11*
%TO.P,J2,2,Pin_2*%
%TO.N,/D1*%
X122250000Y-107120000D03*
%TO.P,J2,3,Pin_3*%
%TO.N,/D2*%
X122250000Y-104580000D03*
%TO.P,J2,4,Pin_4*%
%TO.N,/D3*%
X122250000Y-102040000D03*
%TO.P,J2,5,Pin_5*%
%TO.N,/D4*%
X122250000Y-99500000D03*
%TO.P,J2,6,Pin_6*%
%TO.N,/D5*%
X122250000Y-96960000D03*
%TO.P,J2,7,Pin_7*%
%TO.N,/D6*%
X122250000Y-94420000D03*
%TD*%
D12*
%TO.P,SW1,1,1*%
%TO.N,GND*%
X97000000Y-76500000D03*
X103500000Y-76500000D03*
%TO.P,SW1,2,2*%
%TO.N,/D8*%
X97000000Y-81000000D03*
X103500000Y-81000000D03*
%TD*%
D10*
%TO.P,J1,1,Pin_1*%
%TO.N,/D7*%
X97500000Y-94420000D03*
D11*
%TO.P,J1,2,Pin_2*%
%TO.N,/D8*%
X97500000Y-96960000D03*
%TO.P,J1,3,Pin_3*%
%TO.N,/D9*%
X97500000Y-99500000D03*
%TO.P,J1,4,Pin_4*%
%TO.N,/D10*%
X97500000Y-102040000D03*
%TO.P,J1,5,Pin_5*%
%TO.N,+3.3V*%
X97500000Y-104580000D03*
%TO.P,J1,6,Pin_6*%
%TO.N,GND*%
X97500000Y-107120000D03*
%TO.P,J1,7,Pin_7*%
%TO.N,+5V*%
X97500000Y-109660000D03*
%TD*%
D12*
%TO.P,SW2,1,1*%
%TO.N,GND*%
X102212000Y-84750000D03*
X108712000Y-84750000D03*
%TO.P,SW2,2,2*%
%TO.N,/D7*%
X102212000Y-89250000D03*
X108712000Y-89250000D03*
%TD*%
D13*
%TO.P,C1,1*%
%TO.N,Net-(U3-A+)*%
X119750000Y-81750000D03*
%TO.P,C1,2*%
%TO.N,GND*%
X119750000Y-76750000D03*
%TD*%
D10*
%TO.P,U2,1,OUT*%
%TO.N,/D0*%
X94250000Y-54960000D03*
D11*
%TO.P,U2,2,GND*%
%TO.N,GND*%
X94250000Y-57500000D03*
%TO.P,U2,3,VCC*%
%TO.N,+3.3V*%
X94250000Y-60040000D03*
%TD*%
D14*
%TO.P,R1,1*%
%TO.N,/D10*%
X120250000Y-71310000D03*
D15*
%TO.P,R1,2*%
%TO.N,Net-(U3-A+)*%
X120250000Y-63690000D03*
%TD*%
D10*
%TO.P,U3,1,GND*%
%TO.N,GND*%
X111760000Y-85250000D03*
D11*
%TO.P,U3,2,Vin*%
%TO.N,+5V*%
X114300000Y-85250000D03*
%TO.P,U3,3,Shutdown*%
%TO.N,/D9*%
X116840000Y-85250000D03*
%TO.P,U3,4,A-*%
%TO.N,GND*%
X119380000Y-85250000D03*
%TO.P,U3,5,A+*%
%TO.N,Net-(U3-A+)*%
X121920000Y-85250000D03*
%TD*%
D16*
%TO.N,+5V*%
X100965000Y-82804000D03*
%TO.N,/D7*%
X101925000Y-92273000D03*
%TO.N,/D8*%
X104000000Y-96000000D03*
%TO.N,/D9*%
X116688000Y-92812000D03*
%TO.N,/D10*%
X107950000Y-71310000D03*
X114750000Y-97028000D03*
%TO.N,+3.3V*%
X104500000Y-102750000D03*
X105700000Y-62662696D03*
%TD*%
D17*
%TO.N,Net-(U3-A+)*%
X119750000Y-81750000D02*
X120835000Y-80665000D01*
X121085000Y-64525000D02*
X120250000Y-63690000D01*
X121920000Y-84585000D02*
X121920000Y-85250000D01*
X121920000Y-78045578D02*
X121920000Y-66540868D01*
X121449773Y-83449773D02*
X119750000Y-81750000D01*
X121920013Y-66540868D02*
G75*
G03*
X121085000Y-64525000I-2850913J-32D01*
G01*
X120835006Y-80665006D02*
G75*
G03*
X121920000Y-78045578I-2619406J2619406D01*
G01*
X121919985Y-84585000D02*
G75*
G03*
X121449772Y-83449774I-1605485J0D01*
G01*
%TO.N,+5V*%
X98915000Y-108245000D02*
X97500000Y-109660000D01*
X100965000Y-82804000D02*
X100647500Y-83121500D01*
X100330000Y-83888012D02*
X100330000Y-104828887D01*
X100647496Y-83121496D02*
G75*
G03*
X100330000Y-83888012I766504J-766504D01*
G01*
X98915004Y-108245004D02*
G75*
G03*
X100330000Y-104828887I-3416104J3416104D01*
G01*
%TO.N,/D0*%
X121069000Y-108479000D02*
X122250000Y-109660000D01*
X123832439Y-89908560D02*
X123825000Y-89916000D01*
X123839879Y-89880079D02*
X123839879Y-65960930D01*
X119888000Y-96194390D02*
X119888000Y-105627813D01*
X114174036Y-54960000D02*
X94250000Y-54960000D01*
X123839879Y-89911642D02*
X123839879Y-89946154D01*
X121331985Y-92499081D02*
X123808035Y-90023030D01*
X118021792Y-56553792D02*
X121510902Y-60042902D01*
X119887995Y-105627813D02*
G75*
G03*
X121069001Y-108478999I4032205J13D01*
G01*
X118021784Y-56553800D02*
G75*
G03*
X114174036Y-54960000I-3847784J-3847800D01*
G01*
X123839814Y-89911641D02*
G75*
G03*
X123832439Y-89908560I-4314J41D01*
G01*
X121331976Y-92499072D02*
G75*
G03*
X119888001Y-96194390I4014624J-3698528D01*
G01*
X123952026Y-65936234D02*
G75*
G03*
X121510902Y-60042902I-8334526J-66D01*
G01*
X123808050Y-90023045D02*
G75*
G03*
X123839879Y-89946154I-76850J76845D01*
G01*
%TO.N,/D7*%
X102068500Y-92129500D02*
X101925000Y-92273000D01*
X102212000Y-91783060D02*
X102212000Y-89250000D01*
X102068512Y-92129512D02*
G75*
G03*
X102212000Y-91783060I-346412J346412D01*
G01*
%TO.N,/D8*%
X104000000Y-81500000D02*
X103500000Y-81000000D01*
X104000000Y-96000000D02*
X104250000Y-95750000D01*
X104500000Y-95146446D02*
X104500000Y-82707106D01*
X104249986Y-95749986D02*
G75*
G03*
X104500000Y-95146446I-603586J603586D01*
G01*
X104499997Y-82707106D02*
G75*
G03*
X104000000Y-81500000I-1707097J6D01*
G01*
%TO.N,/D9*%
X116688000Y-92812000D02*
X116764000Y-92736000D01*
X116840000Y-92552519D02*
X116840000Y-85250000D01*
X116763994Y-92735994D02*
G75*
G03*
X116840000Y-92552519I-183494J183494D01*
G01*
%TO.N,/D10*%
X114750000Y-97028000D02*
X114750000Y-89499998D01*
X106900000Y-84716327D02*
X106900000Y-72889120D01*
X107679000Y-86597000D02*
X108130500Y-87048500D01*
X107630002Y-71651769D02*
X107651001Y-71620342D01*
X107950000Y-71310000D02*
X107751728Y-71508271D01*
X112750001Y-87500000D02*
X109220517Y-87500000D01*
X107244001Y-72058627D02*
X107534547Y-71768081D01*
X106899989Y-84716327D02*
G75*
G03*
X107679000Y-86597000I2659711J27D01*
G01*
X107243990Y-72058616D02*
G75*
G03*
X106900000Y-72889120I830510J-830484D01*
G01*
X107534541Y-71768075D02*
G75*
G03*
X107630001Y-71651769I-542841J542875D01*
G01*
X107751728Y-71508271D02*
G75*
G03*
X107698501Y-71561956I6212172J-6212329D01*
G01*
X114750000Y-89499998D02*
G75*
G03*
X112750001Y-87500000I-2000000J-2D01*
G01*
X107698500Y-71561955D02*
G75*
G03*
X107651001Y-71620342I286200J-281345D01*
G01*
X108130495Y-87048505D02*
G75*
G03*
X109220517Y-87500000I1090005J1090005D01*
G01*
%TO.N,+3.3V*%
X105100000Y-102150000D02*
X104500000Y-102750000D01*
X105700000Y-62662696D02*
X105700000Y-100701471D01*
X105100008Y-102150008D02*
G75*
G03*
X105700000Y-100701471I-1448508J1448508D01*
G01*
%TD*%
M02*
